<svg width="715" height="53" viewBox="0 0 715 53" fill="none" xmlns="http://www.w3.org/2000/svg">
<path d="M17.216 9.808C17.216 8.8 17.144 7.864 16.928 7.072H24.272C24.056 7.864 23.984 8.8 23.984 9.808V52H17.216V9.808ZM0.00800003 7.072V1.6H9.728C13.688 1.6 16.208 3.472 16.928 7.072H0.00800003ZM24.272 7.072C24.992 3.472 27.512 1.6 31.472 1.6H41.192V7.072H24.272ZM40.1238 52V14.92H46.3158V23.776H46.4598C48.0438 18.736 51.3558 14.056 56.9718 14.056C57.1878 14.056 57.9078 14.056 59.0598 14.272V19.528C57.9078 19.384 57.5478 19.384 56.7558 19.384C51.1398 19.384 47.5398 22.336 46.3158 24.64V52H40.1238ZM68.4474 46.528C63.1914 44.584 60.0234 40.552 60.0234 33.496C60.0234 26.584 63.1194 22.48 68.2314 20.464C67.2954 22.984 66.8634 26.224 66.7194 30.184H88.6074C88.5354 26.44 88.1034 23.128 87.0234 20.392C92.3514 22.552 95.3034 27.088 95.2314 34.864H66.6474C66.7194 39.544 67.2234 43.504 68.4474 46.528ZM68.2314 20.464C69.8154 16.144 72.7674 14.056 77.9514 14.056C82.8474 14.056 85.5834 16.504 87.0234 20.392C84.5034 19.384 81.4794 18.952 77.9514 18.952C74.2074 18.952 70.9674 19.456 68.2314 20.464ZM68.4474 46.528C71.1834 47.464 74.4234 47.896 78.0234 47.896C81.6954 47.896 84.8634 47.464 87.5274 46.6C86.3754 50.344 83.8554 52.864 78.0234 52.864C73.0554 52.864 70.1034 50.56 68.4474 46.528ZM87.5274 46.6C88.1034 44.512 88.3194 42.064 88.3914 39.544H95.0874C94.3674 42.784 91.6314 45.16 87.5274 46.6ZM109.018 46.528C103.762 44.584 100.594 40.552 100.594 33.496C100.594 26.584 103.69 22.48 108.802 20.464C107.866 22.984 107.434 26.224 107.29 30.184H129.178C129.106 26.44 128.674 23.128 127.594 20.392C132.922 22.552 135.874 27.088 135.802 34.864H107.218C107.29 39.544 107.794 43.504 109.018 46.528ZM108.802 20.464C110.386 16.144 113.338 14.056 118.522 14.056C123.418 14.056 126.154 16.504 127.594 20.392C125.074 19.384 122.05 18.952 118.522 18.952C114.778 18.952 111.538 19.456 108.802 20.464ZM109.018 46.528C111.754 47.464 114.994 47.896 118.594 47.896C122.266 47.896 125.434 47.464 128.098 46.6C126.946 50.344 124.426 52.864 118.594 52.864C113.626 52.864 110.674 50.56 109.018 46.528ZM128.098 46.6C128.674 44.512 128.89 42.064 128.962 39.544H135.658C134.938 42.784 132.202 45.16 128.098 46.6ZM165.932 46.888C165.212 50.272 162.836 52.864 156.716 52.864C151.388 52.864 148.724 50.848 147.5 46.96C150.164 47.752 153.332 48.112 156.716 48.112C160.46 48.112 163.556 47.752 165.932 46.888ZM140.372 39.256H146.636C146.636 42.352 146.852 44.872 147.5 46.96C143.252 45.664 140.372 43.216 140.372 39.256ZM142.1 26.152C142.1 22.912 143.9 20.824 147.428 19.744C147.212 20.464 147.14 21.256 147.14 22.048C147.14 27.52 150.884 28.744 155.708 29.824L159.164 30.616C166.94 32.416 171.404 35.008 171.404 40.12C171.404 43.504 169.46 45.736 165.932 46.888C166.148 46.024 166.22 45.088 166.22 44.152C166.22 38.464 163.484 37.312 157.148 35.872L153.404 35.008C145.916 33.28 142.1 30.832 142.1 26.152ZM147.428 19.744C148.292 16.432 151.028 14.056 155.78 14.056C160.388 14.056 163.052 15.784 164.276 19.744C161.9 19.096 159.02 18.736 155.708 18.736C152.324 18.736 149.588 19.024 147.428 19.744ZM164.276 19.744C168.524 20.968 170.9 23.272 170.9 26.584H165.068C165.068 23.776 164.78 21.544 164.276 19.744ZM207.223 52.864C202.759 52.864 200.743 50.776 200.023 47.752C201.391 48.112 202.975 48.328 204.703 48.328C212.551 48.328 216.799 45.376 218.671 42.28V31.048L209.455 32.344L212.263 30.904C215.791 29.104 218.671 26.656 218.671 21.904C218.671 21.184 218.671 20.392 218.527 19.744C222.559 20.968 224.647 23.704 224.647 29.248V39.544C224.647 44.512 224.719 48.76 225.151 51.712V52H218.671V43.072H218.527C216.943 48.184 213.919 52.864 207.223 52.864ZM193.687 40.912C193.687 36.664 196.639 34.144 202.183 33.352L209.455 32.344L208.015 33.064C203.623 35.296 199.735 38.176 199.735 44.8C199.735 45.88 199.807 46.888 200.023 47.752C196.063 46.744 193.687 44.296 193.687 40.912ZM194.695 26.512C194.695 23.2 197.287 20.896 201.679 19.744C201.175 21.688 201.103 23.992 201.103 26.512H194.695ZM201.679 19.744C202.543 16.288 204.775 14.056 210.247 14.056C216.295 14.056 218.095 16.504 218.527 19.744C216.295 19.024 213.487 18.808 210.103 18.808C206.863 18.808 203.983 19.096 201.679 19.744ZM257.057 46.888C256.337 50.272 253.961 52.864 247.841 52.864C242.513 52.864 239.849 50.848 238.625 46.96C241.289 47.752 244.457 48.112 247.841 48.112C251.585 48.112 254.681 47.752 257.057 46.888ZM231.497 39.256H237.761C237.761 42.352 237.977 44.872 238.625 46.96C234.377 45.664 231.497 43.216 231.497 39.256ZM233.225 26.152C233.225 22.912 235.025 20.824 238.553 19.744C238.337 20.464 238.265 21.256 238.265 22.048C238.265 27.52 242.009 28.744 246.833 29.824L250.289 30.616C258.065 32.416 262.529 35.008 262.529 40.12C262.529 43.504 260.585 45.736 257.057 46.888C257.273 46.024 257.345 45.088 257.345 44.152C257.345 38.464 254.609 37.312 248.273 35.872L244.529 35.008C237.041 33.28 233.225 30.832 233.225 26.152ZM238.553 19.744C239.417 16.432 242.153 14.056 246.905 14.056C251.513 14.056 254.177 15.784 255.401 19.744C253.025 19.096 250.145 18.736 246.833 18.736C243.449 18.736 240.713 19.024 238.553 19.744ZM255.401 19.744C259.649 20.968 262.025 23.272 262.025 26.584H256.193C256.193 23.776 255.905 21.544 255.401 19.744ZM288.34 52V1.6H295.108V52H288.34ZM306.889 52V14.92H313.081V23.848H313.153C314.737 18.736 318.121 14.056 324.241 14.056C327.913 14.056 330.361 15.856 331.225 19.816C329.281 19.168 327.121 18.88 324.889 18.88C318.553 18.88 314.449 22.048 313.081 24.64V52H306.889ZM331.225 19.816C335.041 21.112 337.777 23.848 337.777 28.888V52H331.585V23.704C331.585 22.192 331.441 20.896 331.225 19.816ZM349.4 52V19.456H342.92V14.92H349.4V13.552C349.4 9.592 351.128 7.216 355.592 6.64V14.92H363.152V19.456H355.592V52H349.4ZM355.592 6.64V5.992C355.592 2.824 356.888 0.735999 360.632 0.735999H363.152V6.496H357.968C357.104 6.496 356.312 6.568 355.592 6.64ZM369.468 52V14.92H375.66V23.776H375.804C377.388 18.736 380.7 14.056 386.316 14.056C386.532 14.056 387.252 14.056 388.404 14.272V19.528C387.252 19.384 386.892 19.384 386.1 19.384C380.484 19.384 376.884 22.336 375.66 24.64V52H369.468ZM404.028 52.864C399.564 52.864 397.548 50.776 396.828 47.752C398.196 48.112 399.78 48.328 401.508 48.328C409.356 48.328 413.604 45.376 415.476 42.28V31.048L406.26 32.344L409.068 30.904C412.596 29.104 415.476 26.656 415.476 21.904C415.476 21.184 415.476 20.392 415.332 19.744C419.364 20.968 421.452 23.704 421.452 29.248V39.544C421.452 44.512 421.524 48.76 421.956 51.712V52H415.476V43.072H415.332C413.748 48.184 410.724 52.864 404.028 52.864ZM390.492 40.912C390.492 36.664 393.444 34.144 398.988 33.352L406.26 32.344L404.82 33.064C400.428 35.296 396.54 38.176 396.54 44.8C396.54 45.88 396.612 46.888 396.828 47.752C392.868 46.744 390.492 44.296 390.492 40.912ZM391.5 26.512C391.5 23.2 394.092 20.896 398.484 19.744C397.98 21.688 397.908 23.992 397.908 26.512H391.5ZM398.484 19.744C399.348 16.288 401.58 14.056 407.052 14.056C413.1 14.056 414.9 16.504 415.332 19.744C413.1 19.024 410.292 18.808 406.908 18.808C403.668 18.808 400.788 19.096 398.484 19.744ZM453.862 46.888C453.142 50.272 450.766 52.864 444.646 52.864C439.318 52.864 436.654 50.848 435.43 46.96C438.094 47.752 441.262 48.112 444.646 48.112C448.39 48.112 451.486 47.752 453.862 46.888ZM428.302 39.256H434.566C434.566 42.352 434.782 44.872 435.43 46.96C431.182 45.664 428.302 43.216 428.302 39.256ZM430.03 26.152C430.03 22.912 431.83 20.824 435.358 19.744C435.142 20.464 435.07 21.256 435.07 22.048C435.07 27.52 438.814 28.744 443.638 29.824L447.094 30.616C454.87 32.416 459.334 35.008 459.334 40.12C459.334 43.504 457.39 45.736 453.862 46.888C454.078 46.024 454.15 45.088 454.15 44.152C454.15 38.464 451.414 37.312 445.078 35.872L441.334 35.008C433.846 33.28 430.03 30.832 430.03 26.152ZM435.358 19.744C436.222 16.432 438.958 14.056 443.71 14.056C448.318 14.056 450.982 15.784 452.206 19.744C449.83 19.096 446.95 18.736 443.638 18.736C440.254 18.736 437.518 19.024 435.358 19.744ZM452.206 19.744C456.454 20.968 458.83 23.272 458.83 26.584H452.998C452.998 23.776 452.71 21.544 452.206 19.744ZM474.767 46.888C469.871 46.384 468.575 43.72 468.575 40.192V19.456H462.095V14.92H468.575V4.912L474.767 1.6V14.92H482.111V19.456H474.767V46.888ZM474.767 46.888C475.415 46.96 476.135 47.032 476.855 47.032H482.111V52.864H479.519C475.559 52.864 474.911 50.56 474.767 46.888ZM489.913 52V14.92H496.105V23.776H496.249C497.833 18.736 501.145 14.056 506.761 14.056C506.977 14.056 507.697 14.056 508.849 14.272V19.528C507.697 19.384 507.337 19.384 506.545 19.384C500.929 19.384 497.329 22.336 496.105 24.64V52H489.913ZM528.249 52.864C524.649 52.864 522.273 51.064 521.409 47.104C523.281 47.752 525.441 48.04 527.601 48.04C533.865 48.04 537.969 44.872 539.337 42.28V14.92H545.529V52H539.337V43.072H539.265C537.681 48.184 534.297 52.864 528.249 52.864ZM514.857 38.032C514.857 43.072 517.665 45.88 521.409 47.104C521.193 46.024 521.049 44.728 521.049 43.216V14.92H514.857V38.032ZM562.036 46.456C556.924 44.512 553.828 40.48 553.828 33.424C553.828 26.44 556.996 22.336 562.18 20.392C561.028 23.416 560.452 27.736 560.452 33.424C560.452 39.04 560.956 43.36 562.036 46.456ZM562.036 46.456C564.7 47.464 567.94 47.896 571.468 47.896C575.14 47.896 578.164 47.392 580.54 46.528C579.244 50.848 576.652 52.864 571.468 52.864C566.644 52.864 563.692 50.92 562.036 46.456ZM562.18 20.392C563.908 15.928 566.932 14.056 571.468 14.056C576.22 14.056 579.028 15.856 580.468 20.392C577.948 19.456 574.924 18.952 571.468 18.952C567.94 18.952 564.772 19.384 562.18 20.392ZM580.468 20.392C584.932 22.12 587.668 25.144 588.1 28.6H581.62C581.476 25.216 581.116 22.552 580.468 20.392ZM580.54 46.528C581.26 44.296 581.62 41.488 581.836 38.032H588.316C587.668 41.848 585.148 44.872 580.54 46.528ZM603.369 46.888C598.473 46.384 597.177 43.72 597.177 40.192V19.456H590.697V14.92H597.177V4.912L603.369 1.6V14.92H610.713V19.456H603.369V46.888ZM603.369 46.888C604.017 46.96 604.737 47.032 605.457 47.032H610.713V52.864H608.121C604.161 52.864 603.513 50.56 603.369 46.888ZM631.186 52.864C627.586 52.864 625.21 51.064 624.346 47.104C626.218 47.752 628.378 48.04 630.538 48.04C636.802 48.04 640.906 44.872 642.274 42.28V14.92H648.466V52H642.274V43.072H642.202C640.618 48.184 637.234 52.864 631.186 52.864ZM617.794 38.032C617.794 43.072 620.602 45.88 624.346 47.104C624.13 46.024 623.986 44.728 623.986 43.216V14.92H617.794V38.032ZM659.718 52V14.92H665.91V23.776H666.054C667.638 18.736 670.95 14.056 676.566 14.056C676.782 14.056 677.502 14.056 678.654 14.272V19.528C677.502 19.384 677.142 19.384 676.35 19.384C670.734 19.384 667.134 22.336 665.91 24.64V52H659.718ZM688.041 46.528C682.785 44.584 679.617 40.552 679.617 33.496C679.617 26.584 682.713 22.48 687.825 20.464C686.889 22.984 686.457 26.224 686.313 30.184H708.201C708.129 26.44 707.697 23.128 706.617 20.392C711.945 22.552 714.897 27.088 714.825 34.864H686.241C686.313 39.544 686.817 43.504 688.041 46.528ZM687.825 20.464C689.409 16.144 692.361 14.056 697.545 14.056C702.441 14.056 705.177 16.504 706.617 20.392C704.097 19.384 701.073 18.952 697.545 18.952C693.801 18.952 690.561 19.456 687.825 20.464ZM688.041 46.528C690.777 47.464 694.017 47.896 697.617 47.896C701.289 47.896 704.457 47.464 707.121 46.6C705.969 50.344 703.449 52.864 697.617 52.864C692.649 52.864 689.697 50.56 688.041 46.528ZM707.121 46.6C707.697 44.512 707.913 42.064 707.985 39.544H714.681C713.961 42.784 711.225 45.16 707.121 46.6Z" fill="white"/>
</svg>
