<svg width="699" height="146" viewBox="0 0 699 146" fill="none" xmlns="http://www.w3.org/2000/svg">
<g clip-path="url(#clip0)">
<path d="M0 2.40998H31.72C42.72 2.40998 49.79 6.82998 50.59 16.47H0V2.40998ZM50.59 16.47H67.66V142.99H50.59V16.47ZM86.53 2.40998H118.26V16.47H67.66C68.46 6.82998 75.49 2.40998 86.53 2.40998ZM118.26 42.57H135.33V67.87H135.53C139.74 53.61 148.98 40.16 163.84 40.16C164.844 40.1402 165.848 40.2071 166.84 40.36V57.99C150.78 57.39 139.13 62.61 135.32 69.64V142.99H118.26V42.57ZM178.89 94.37C178.89 77.31 187.89 65.26 202.39 59.24C200.18 65.66 198.77 73.69 198.17 83.53H253.59C253.74 75.4102 252.795 67.3073 250.78 59.44C265.23 65.86 272.66 78.51 271.66 95.98H197.97C198.17 107.83 199.37 119.07 202.97 127.91C186.52 122.68 178.89 111.24 178.89 94.37ZM226.11 54.99C218.014 54.8438 209.967 56.2772 202.42 59.21C207.04 46.36 215.07 40.13 227.11 40.13C238.96 40.13 246.79 46.56 250.81 59.41C242.944 56.3384 234.553 54.8369 226.11 54.99ZM203.02 127.88C209.65 130.08 217.88 131.09 227.72 131.09C235.574 131.191 243.406 130.246 251.01 128.28C246.79 139.52 238.36 145.34 227.31 145.34C214.84 145.37 207.21 138.55 202.99 127.91L203.02 127.88ZM254.02 110.01H272.29C269.88 119.64 261.45 125.26 251.01 128.28C252.955 122.394 253.961 116.239 253.99 110.04L254.02 110.01ZM287.55 94.34C287.55 77.28 296.55 65.23 311.04 59.21C308.83 65.63 307.42 73.66 306.82 83.5H362.24C362.39 75.3802 361.445 67.2772 359.43 59.41C373.88 65.83 381.31 78.48 380.31 95.95H306.59C306.79 107.8 308 119.04 311.59 127.88C295.11 122.68 287.52 111.24 287.52 94.37L287.55 94.34ZM334.7 54.99C326.604 54.8448 318.558 56.2782 311.01 59.21C315.63 46.36 323.66 40.13 335.7 40.13C347.55 40.13 355.38 46.56 359.4 59.41C351.534 56.3384 343.143 54.8369 334.7 54.99ZM311.61 127.91C318.24 130.11 326.47 131.12 336.31 131.12C344.164 131.221 351.996 130.276 359.6 128.31C355.38 139.55 346.95 145.37 335.91 145.37C323.46 145.37 315.83 138.55 311.61 127.91ZM362.61 110.04H380.88C378.47 119.67 370.04 125.29 359.6 128.31C361.559 122.416 362.574 116.25 362.61 110.04ZM396.14 109.83H414.61C414.443 111.769 414.377 113.715 414.41 115.66C414.338 120.339 414.944 125.004 416.21 129.51C403.97 126.1 396.34 119.27 396.11 109.83H396.14ZM462.4 124.69C462.4 114.05 457.4 107.42 441.92 101.6L423.85 94.77C407.38 88.55 400.96 83.13 400.96 73.49C400.96 65.66 405.77 59.84 415.21 56.63C414.978 57.8877 414.844 59.1616 414.81 60.44C414.81 71.28 419.23 75.3 434.49 81.12L451.55 87.55C468.02 93.77 475.65 100.6 475.65 111.24C475.65 119.67 470.65 125.24 461.99 128.51C462.225 127.249 462.362 125.972 462.4 124.69ZM436.11 40.16C447.76 40.16 454.18 45.98 456.99 56.02C451.57 54.42 444.75 53.61 436.31 53.61C427.677 53.61 420.65 54.61 415.23 56.61C416.62 48.19 423.24 40.16 436.11 40.16ZM416.23 129.51C423.051 131.283 430.073 132.16 437.12 132.12C446.95 132.12 455.59 130.92 462.01 128.51C460.41 137.14 452.78 145.37 438.52 145.37C426.86 145.37 419.43 139.75 416.21 129.51H416.23ZM456.97 55.99C470.02 59.41 475.65 66.43 476.85 74.47H458.58C459.037 68.2635 458.494 62.0239 456.97 55.99ZM526.4 40.99C529.61 29.35 537.04 21.52 547.88 18.31L531.02 85.99H587.84L570.77 18.33C581.61 21.54 589.04 29.33 592.26 41.01L620.16 143.01H602.11L591.27 100.01H527.42L516.78 143.01H498.71L526.4 40.99ZM550.11 9.03999C551.52 3.61999 553.92 0.0399895 559.35 0.0399895C564.78 0.0399895 567.18 3.65999 568.58 9.03999L570.79 18.28C563.311 16.1331 555.379 16.1331 547.9 18.28L550.11 9.03999ZM642.11 2.40998H658.97V142.99H642.11V2.40998Z" fill="white"/>
</g>
<defs>
<clipPath id="clip0">
<rect width="698.91" height="145.37" fill="white"/>
</clipPath>
</defs>
</svg>
