<svg width="640" height="573" viewBox="0 0 640 573" fill="none" xmlns="http://www.w3.org/2000/svg">
<mask id="path-1-inside-1_2512_34121" fill="white">
<path fill-rule="evenodd" clip-rule="evenodd" d="M500 573C577.32 573 640 510.32 640 433L640 95.1119L561.121 95.1119L561.121 5.9224e-05L140 -3.86268e-05C62.6805 -4.53863e-05 0.000299696 62.68 0.000292937 140L0.000263195 480.208L77.0864 480.208L77.0864 573L500 573Z"/>
</mask>
<path fill-rule="evenodd" clip-rule="evenodd" d="M500 573C577.32 573 640 510.32 640 433L640 95.1119L561.121 95.1119L561.121 5.9224e-05L140 -3.86268e-05C62.6805 -4.53863e-05 0.000299696 62.68 0.000292937 140L0.000263195 480.208L77.0864 480.208L77.0864 573L500 573Z" fill="url(#paint0_linear_2512_34121)"/>
<path d="M640 433L641 433L640 433ZM500 573L500 572L500 573ZM640 95.1119L641 95.1119L641 94.1119L640 94.1119L640 95.1119ZM561.121 95.1119L560.121 95.1119L560.121 96.1119L561.121 96.1119L561.121 95.1119ZM561.121 5.41393e-05L562.121 5.42267e-05L562.121 -0.999946L561.121 -0.999946L561.121 5.41393e-05ZM140 -4.37114e-05L140 -1.00004L140 -4.37114e-05ZM0.000281995 140L1.00028 140L0.000281995 140ZM0.000252253 480.208L-0.999748 480.208L-0.999748 481.208L0.000252165 481.208L0.000252253 480.208ZM77.0864 480.208L78.0864 480.208L78.0864 479.208L77.0864 479.208L77.0864 480.208ZM77.0864 573L76.0864 573L76.0864 574L77.0864 574L77.0864 573ZM639 433C639 509.767 576.768 572 500 572L500 574C577.872 574 641 510.872 641 433L639 433ZM639 95.1119L639 433L641 433L641 95.1119L639 95.1119ZM561.121 96.1119L640 96.1119L640 94.1119L561.121 94.1119L561.121 96.1119ZM560.121 5.40519e-05L560.121 95.1119L562.121 95.1119L562.121 5.42267e-05L560.121 5.40519e-05ZM140 0.999956L561.121 1.00005L561.121 -0.999946L140 -1.00004L140 0.999956ZM1.00028 140C1.00029 63.2323 63.2328 0.99995 140 0.999956L140 -1.00004C62.1282 -1.00005 -0.999711 62.1278 -0.999718 140L1.00028 140ZM1.00025 480.208L1.00028 140L-0.999718 140L-0.999748 480.208L1.00025 480.208ZM77.0864 479.208L0.00025234 479.208L0.000252165 481.208L77.0864 481.208L77.0864 479.208ZM78.0864 573L78.0864 480.208L76.0864 480.208L76.0864 573L78.0864 573ZM500 572L77.0864 572L77.0864 574L500 574L500 572Z" fill="white" mask="url(#path-1-inside-1_2512_34121)"/>
<defs>
<linearGradient id="paint0_linear_2512_34121" x1="810.945" y1="632.168" x2="67.0245" y2="-20.6948" gradientUnits="userSpaceOnUse">
<stop stop-color="#4F46E5"/>
<stop offset="0.398018" stop-color="#1EB792"/>
</linearGradient>
</defs>
</svg>
