<svg width="534" height="323" viewBox="0 0 534 323" fill="none" xmlns="http://www.w3.org/2000/svg">
<path d="M305.13 28.3114C296.798 11.0041 279.287 9.63653e-05 260.079 9.39834e-05L80.0002 7.16536e-05L140.457 218.185C157.619 280.122 213.994 323 278.264 323L447 323L305.13 28.3114Z" fill="#2F3130"/>
<path fill-rule="evenodd" clip-rule="evenodd" d="M345.018 2.45736e-05L251.694 0L251.694 66.6944C219.763 21.3936 164.836 9.86905e-06 93.3236 2.45736e-05L-6.10352e-05 0V161.5C8.0119 272.23 78.8175 323 188.982 323H282.306L282.306 256.306C314.237 301.607 369.164 323 440.676 323L534 323L534 161.5L534 161.5C525.988 50.7702 455.182 1.92119e-06 345.018 2.45736e-05Z" fill="url(#paint0_linear_2789_32572)"/>
<defs>
<linearGradient id="paint0_linear_2789_32572" x1="542.767" y1="63.3925" x2="226.81" y2="490.705" gradientUnits="userSpaceOnUse">
<stop offset="0.0600381" stop-color="#4F46E5"/>
<stop offset="0.746571" stop-color="#1EB792"/>
</linearGradient>
</defs>
</svg>
