<svg width="280" height="29" viewBox="0 0 280 29" fill="none" xmlns="http://www.w3.org/2000/svg">
<path d="M0 0.455366H6.10409C8.22089 0.455366 9.58142 1.30462 9.73536 3.15683H0V0.455366ZM9.73536 3.15683H13.0203V27.4661H9.73536V3.15683ZM16.6515 0.455366H22.7576V3.15683H13.0203C13.1742 1.30462 14.527 0.455366 16.6515 0.455366ZM22.7576 8.17163H26.0424V13.0327H26.0809C26.8911 10.2928 28.6692 7.70857 31.5288 7.70857C31.722 7.70477 31.9152 7.71763 32.1061 7.747V11.1344C29.0156 11.0191 26.7737 12.0221 26.0405 13.3728V27.4661H22.7576V8.17163ZM34.425 18.1244C34.425 14.8465 36.1569 12.5312 38.9473 11.3746C38.522 12.6081 38.2506 14.151 38.1352 16.0416H48.8C48.8289 14.4815 48.647 12.9246 48.2593 11.413C51.04 12.6465 52.4698 15.0771 52.2773 18.4337H38.0967C38.1352 20.7106 38.3661 22.8702 39.0589 24.5687C35.8933 23.5638 34.425 21.3657 34.425 18.1244ZM43.5119 10.558C41.9539 10.5299 40.4054 10.8053 38.953 11.3688C39.8421 8.89983 41.3874 7.70282 43.7043 7.70282C45.9847 7.70282 47.4914 8.93826 48.265 11.4072C46.7514 10.8171 45.1366 10.5286 43.5119 10.558ZM39.0685 24.5629C40.3443 24.9856 41.9281 25.1797 43.8217 25.1797C45.333 25.1991 46.8402 25.0175 48.3035 24.6398C47.4914 26.7994 45.8692 27.9176 43.7428 27.9176C41.3431 27.9234 39.8748 26.613 39.0627 24.5687L39.0685 24.5629ZM48.8828 21.1294H52.3986C51.9348 22.9797 50.3126 24.0595 48.3035 24.6398C48.6779 23.5089 48.8714 22.3262 48.877 21.1352L48.8828 21.1294ZM55.3352 18.1186C55.3352 14.8407 57.0671 12.5255 59.8555 11.3688C59.4302 12.6023 59.1589 14.1452 59.0434 16.0358H69.7083C69.7371 14.4757 69.5552 12.9188 69.1675 11.4072C71.9482 12.6408 73.378 15.0713 73.1856 18.428H58.9992C59.0376 20.7048 59.2705 22.8644 59.9613 24.5629C56.79 23.5638 55.3294 21.3657 55.3294 18.1244L55.3352 18.1186ZM64.4086 10.558C62.8506 10.5301 61.3022 10.8055 59.8497 11.3688C60.7388 8.89983 62.2841 7.70282 64.601 7.70282C66.8814 7.70282 68.3881 8.93826 69.1617 11.4072C67.6481 10.8171 66.0333 10.5286 64.4086 10.558ZM59.9652 24.5687C61.241 24.9914 62.8248 25.1854 64.7184 25.1854C66.2297 25.2049 67.7369 25.0233 69.2002 24.6455C68.3881 26.8052 66.7659 27.9234 64.6414 27.9234C62.2456 27.9234 60.7773 26.613 59.9652 24.5687ZM69.7795 21.1352H73.2953C72.8315 22.9855 71.2093 24.0653 69.2002 24.6455C69.5771 23.5132 69.7726 22.3284 69.7795 21.1352ZM79.7862 21.0948C79.7541 21.4673 79.7413 21.8412 79.7477 22.215C79.7338 23.1141 79.8505 24.0104 80.0941 24.8761C77.7386 24.2209 76.2703 22.9086 76.2261 21.0948H79.7862ZM88.9827 23.95C88.9827 21.9057 88.0205 20.6318 85.0416 19.5135L81.5643 18.2012C78.3949 17.0061 77.1594 15.9647 77.1594 14.1125C77.1594 12.6081 78.085 11.4899 79.9016 10.8731C79.857 11.1147 79.8312 11.3595 79.8246 11.6051C79.8246 13.6879 80.6752 14.4603 83.6118 15.5786L86.8948 16.814C90.0642 18.0091 91.5325 19.3214 91.5325 21.3657C91.5325 22.9855 90.5703 24.0557 88.9038 24.684C88.9491 24.4417 88.9755 24.1963 88.9827 23.95ZM83.9236 7.70857C86.1654 7.70857 87.4009 8.82683 87.9416 10.7559C86.8986 10.4485 85.5862 10.2928 83.962 10.2928C82.3007 10.2928 80.9485 10.485 79.9055 10.8692C80.173 9.25144 81.4469 7.70857 83.9236 7.70857ZM80.0979 24.8761C81.4105 25.2167 82.7618 25.3853 84.1179 25.3776C86.0096 25.3776 87.6722 25.147 88.9077 24.684C88.5998 26.3421 87.1315 27.9234 84.3873 27.9234C82.1435 27.9234 80.7137 26.8436 80.0941 24.8761H80.0979ZM87.9378 10.7501C90.4491 11.4072 91.5325 12.756 91.7634 14.3008H88.2476C88.3356 13.1083 88.231 11.9095 87.9378 10.7501ZM100.144 7.86805C100.762 5.63157 102.192 4.12713 104.278 3.51036L101.033 16.5143H111.967L108.682 3.51421C110.768 4.13097 112.198 5.62773 112.818 7.8719L118.187 27.47H114.713L112.627 19.208H100.34L98.2928 27.47H94.8155L100.144 7.86805ZM104.707 1.72924C104.978 0.687854 105.44 0 106.485 0C107.53 0 107.992 0.695539 108.261 1.72924L108.686 3.50459C107.247 3.09209 105.721 3.09209 104.281 3.50459L104.707 1.72924ZM122.411 0.455366H125.655V27.4661H122.411V0.455366Z" fill="url(#paint0_linear_2794_32576)"/>
<path d="M134.12 27.8535V24.3735H137.6V27.8535H134.12Z" fill="#FCFCFC"/>
<path d="M142.123 27.8535V7.55351H150.823C152.06 7.55351 153.162 7.79518 154.129 8.27851C155.095 8.74251 155.849 9.39985 156.391 10.2505C156.932 11.0818 157.203 12.0195 157.203 13.0635C157.203 14.0495 157 14.9098 156.594 15.6445C156.207 16.3792 155.724 16.9592 155.144 17.3845C154.564 17.8098 154.003 18.0805 153.462 18.1965C154.003 18.1965 154.409 18.2932 154.68 18.4865C154.97 18.6605 155.192 18.9215 155.347 19.2695C155.521 19.6175 155.733 20.1878 155.985 20.9805L156.014 21.0385L158.218 27.8535H155.173L153.172 21.8505C152.959 21.1932 152.775 20.7292 152.621 20.4585C152.485 20.1878 152.282 20.0042 152.012 19.9075C151.76 19.7915 151.364 19.7335 150.823 19.7335H145.023V27.8535H142.123ZM150.388 17.1235C151.18 17.1235 151.876 16.9688 152.476 16.6595C153.075 16.3308 153.529 15.8958 153.839 15.3545C154.148 14.7938 154.303 14.1752 154.303 13.4985C154.303 12.4158 153.955 11.5942 153.259 11.0335C152.582 10.4535 151.625 10.1635 150.388 10.1635H145.023V17.1235H150.388Z" fill="#FCFCFC"/>
<path d="M161.777 27.8535V7.55351H176.567V10.1635H164.677V16.1085H174.827V18.7185H164.677V25.2435H176.857V27.8535H161.777Z" fill="#FCFCFC"/>
<path d="M188.65 28.1435C186.756 28.1435 185.083 27.6988 183.633 26.8095C182.183 25.9202 181.062 24.6828 180.269 23.0975C179.477 21.5122 179.08 19.7142 179.08 17.7035C179.08 15.6735 179.477 13.8755 180.269 12.3095C181.081 10.7242 182.232 9.48685 183.72 8.59752C185.209 7.70818 186.949 7.26351 188.94 7.26351C190.622 7.26351 192.063 7.56318 193.261 8.16251C194.479 8.76185 195.417 9.58352 196.074 10.6275C196.732 11.6715 197.109 12.8702 197.205 14.2235H194.305C194.17 12.8315 193.648 11.7585 192.739 11.0045C191.831 10.2505 190.613 9.87352 189.085 9.87352H188.795C187.442 9.87352 186.253 10.1828 185.228 10.8015C184.204 11.4202 183.401 12.3192 182.821 13.4985C182.261 14.6778 181.98 16.0795 181.98 17.7035C181.98 19.3275 182.261 20.7292 182.821 21.9085C183.401 23.0878 184.204 23.9868 185.228 24.6055C186.253 25.2242 187.442 25.5335 188.795 25.5335H189.085C190.245 25.5335 191.251 25.3208 192.101 24.8955C192.971 24.4508 193.629 23.8612 194.073 23.1265C194.518 22.3918 194.74 21.5798 194.74 20.6905V20.1395H188.94V17.5585H194.885C195.678 17.5585 196.287 17.7712 196.712 18.1965C197.138 18.6218 197.35 19.2308 197.35 20.0235V27.8535H194.74V25.5625C194.508 25.9105 194.122 26.2875 193.58 26.6935C193.058 27.0802 192.372 27.4185 191.521 27.7085C190.671 27.9985 189.714 28.1435 188.65 28.1435Z" fill="#FCFCFC"/>
<path d="M201.68 27.8535V7.55351H204.58V27.8535H201.68Z" fill="#FCFCFC"/>
<path d="M216.217 28.1435C214.613 28.1435 213.221 27.8922 212.041 27.3895C210.862 26.8675 209.944 26.0942 209.286 25.0695C208.629 24.0448 208.281 22.7978 208.242 21.3285H211.142C211.142 22.6625 211.616 23.6968 212.563 24.4315C213.511 25.1662 214.767 25.5335 216.333 25.5335H216.623C217.938 25.5335 218.963 25.2435 219.697 24.6635C220.451 24.0835 220.828 23.3585 220.828 22.4885C220.828 21.6765 220.567 21.0192 220.045 20.5165C219.523 20.0138 218.721 19.6562 217.638 19.4435L214.39 18.7765C212.728 18.4285 211.452 17.7905 210.562 16.8625C209.692 15.9152 209.257 14.6488 209.257 13.0635C209.257 12.0002 209.557 11.0335 210.156 10.1635C210.775 9.27418 211.626 8.56851 212.708 8.04651C213.81 7.52451 215.077 7.26351 216.507 7.26351C217.996 7.26351 219.291 7.52451 220.393 8.04651C221.515 8.56851 222.385 9.31285 223.003 10.2795C223.641 11.2268 223.98 12.3482 224.018 13.6435H221.118C221.041 12.5028 220.587 11.5942 219.755 10.9175C218.943 10.2215 217.909 9.87352 216.652 9.87352H216.362C215.531 9.87352 214.796 10.0088 214.158 10.2795C213.52 10.5502 213.027 10.9272 212.679 11.4105C212.331 11.8938 212.157 12.4352 212.157 13.0345C212.157 13.7885 212.399 14.4072 212.882 14.8905C213.366 15.3738 214.052 15.7025 214.941 15.8765L218.189 16.5145C219.987 16.8625 221.36 17.5198 222.307 18.4865C223.255 19.4532 223.728 20.7485 223.728 22.3725C223.728 23.5518 223.409 24.5765 222.771 25.4465C222.153 26.3165 221.273 26.9835 220.132 27.4475C219.011 27.9115 217.706 28.1435 216.217 28.1435Z" fill="#FCFCFC"/>
<path d="M232.415 27.8535V10.1635H225.165V7.55351H242.565V10.1635H235.315V27.8535H232.415Z" fill="#FCFCFC"/>
<path d="M245.662 27.8535V7.55351H254.362C255.599 7.55351 256.701 7.79518 257.668 8.27851C258.634 8.74251 259.388 9.39985 259.93 10.2505C260.471 11.0818 260.742 12.0195 260.742 13.0635C260.742 14.0495 260.539 14.9098 260.133 15.6445C259.746 16.3792 259.263 16.9592 258.683 17.3845C258.103 17.8098 257.542 18.0805 257.001 18.1965C257.542 18.1965 257.948 18.2932 258.219 18.4865C258.509 18.6605 258.731 18.9215 258.886 19.2695C259.06 19.6175 259.272 20.1878 259.524 20.9805L259.553 21.0385L261.757 27.8535H258.712L256.711 21.8505C256.498 21.1932 256.314 20.7292 256.16 20.4585C256.024 20.1878 255.821 20.0042 255.551 19.9075C255.299 19.7915 254.903 19.7335 254.362 19.7335H248.562V27.8535H245.662ZM253.927 17.1235C254.719 17.1235 255.415 16.9688 256.015 16.6595C256.614 16.3308 257.068 15.8958 257.378 15.3545C257.687 14.7938 257.842 14.1752 257.842 13.4985C257.842 12.4158 257.494 11.5942 256.798 11.0335C256.121 10.4535 255.164 10.1635 253.927 10.1635H248.562V17.1235H253.927Z" fill="#FCFCFC"/>
<path d="M269.422 27.8535V19.4435L262.172 7.55351H265.536L270.959 16.5145L276.324 7.55351H279.572L272.322 19.4435V27.8535H269.422Z" fill="#FCFCFC"/>
<defs>
<linearGradient id="paint0_linear_2794_32576" x1="-4.58999" y1="5.52349" x2="2.39094" y2="62.2526" gradientUnits="userSpaceOnUse">
<stop offset="0.0600381" stop-color="#4F46E5"/>
<stop offset="0.746571" stop-color="#1EB792"/>
</linearGradient>
</defs>
</svg>
