<svg width="300" height="67" viewBox="0 0 300 67" fill="none" xmlns="http://www.w3.org/2000/svg">
<path d="M0.261902 26.2496C0.261902 12.4189 11.8333 1.12464 25.6429 1.12464C33.2619 1.12464 38.6905 4.13964 42.7857 8.06393L37.9762 12.8975C35.0714 10.1218 31.0714 8.01607 25.6429 8.01607C15.5952 8.01607 7.73809 16.1518 7.73809 26.2496C7.73809 36.3475 15.5952 44.4832 25.6429 44.4832C32.1667 44.4832 35.881 41.8511 38.2619 39.4582C40.2143 37.4961 41.5 34.6725 41.9762 30.8439H25.6429V24.0004H48.6428C48.8809 25.2446 49.0238 26.6804 49.0238 28.3075C49.0238 33.4761 47.6429 39.8411 43.119 44.3396C38.7381 48.9339 33.119 51.3746 25.6905 51.3746C11.8333 51.3268 0.261902 40.0804 0.261902 26.2496Z" fill="#4285F4"/>
<path d="M67.5476 19.0232C58.6429 19.0232 51.4048 25.8189 51.4048 35.1989C51.4048 44.5311 58.6429 51.3746 67.5476 51.3746C76.4524 51.3746 83.6905 44.5311 83.6905 35.1989C83.6905 25.8189 76.4524 19.0232 67.5476 19.0232ZM67.5476 44.9618C62.6905 44.9618 58.4524 40.9418 58.4524 35.1511C58.4524 29.3125 62.6429 25.3404 67.5476 25.3404C72.4048 25.3404 76.6429 29.3125 76.6429 35.1511C76.6429 40.9418 72.4048 44.9618 67.5476 44.9618Z" fill="#EA4335"/>
<path d="M102.786 19.0232C93.8809 19.0232 86.6428 25.8189 86.6428 35.1989C86.6428 44.5311 93.8809 51.3746 102.786 51.3746C111.69 51.3746 118.929 44.5311 118.929 35.1989C118.929 25.8189 111.69 19.0232 102.786 19.0232ZM102.786 44.9618C97.9285 44.9618 93.6904 40.9418 93.6904 35.1511C93.6904 29.3125 97.8809 25.3404 102.786 25.3404C107.69 25.3404 111.881 29.3125 111.881 35.1511C111.881 40.9418 107.643 44.9618 102.786 44.9618Z" fill="#FBBC05"/>
<path d="M146.024 19.9804V22.6125H145.786C144.214 20.6982 141.167 18.9754 137.31 18.9754C129.262 18.9754 121.881 26.0582 121.881 35.1989C121.881 44.2439 129.262 51.3268 137.31 51.3268C141.167 51.3268 144.214 49.6039 145.786 47.6418H146.024V49.9868C146.024 56.1604 142.738 59.4625 137.452 59.4625C133.119 59.4625 130.452 56.3518 129.357 53.7196L123.214 56.3039C124.976 60.6111 129.69 65.8754 137.5 65.8754C145.786 65.8754 152.786 60.9939 152.786 49.0296V19.9804H146.024ZM137.929 44.9618C133.071 44.9618 128.976 40.8461 128.976 35.1989C128.976 29.5039 133.071 25.3404 137.929 25.3404C142.738 25.3404 146.5 29.5039 146.5 35.1989C146.548 40.8939 142.738 44.9618 137.929 44.9618Z" fill="#4285F4"/>
<path d="M157.643 2.8475H164.69V50.3696H157.643V2.8475Z" fill="#34A853"/>
<path d="M184.071 44.9618C180.452 44.9618 177.929 43.2868 176.262 40.0804L197.786 31.1311L197.071 29.3125C195.738 25.6754 191.643 19.0232 183.31 19.0232C175.024 19.0232 168.119 25.5796 168.119 35.1989C168.119 44.2439 174.929 51.3746 184.071 51.3746C191.452 51.3746 195.69 46.8282 197.5 44.1961L192.024 40.5111C190.167 43.1911 187.69 44.9618 184.071 44.9618ZM183.548 25.2446C186.357 25.2446 188.738 26.6325 189.5 28.6904L175.119 34.6725C174.929 28.4511 179.929 25.2446 183.548 25.2446Z" fill="#EA4335"/>
<path d="M202.357 46.5889C202.357 44.2439 204.167 42.4254 206.5 42.4254C208.833 42.4254 210.643 44.2439 210.643 46.5889C210.643 48.9339 208.833 50.7525 206.5 50.7525C204.167 50.7525 202.357 48.8861 202.357 46.5889ZM246.024 35.3425C246.024 44.4832 239.643 51.3268 230.643 51.3268C221.643 51.3268 215.262 44.4832 215.262 35.3425C215.262 26.2018 221.643 19.3582 230.643 19.3582C239.643 19.3582 246.024 26.2496 246.024 35.3425ZM240.405 35.3425C240.405 28.4989 235.643 24.4789 230.643 24.4789C225.643 24.4789 220.881 28.4511 220.881 35.3425C220.881 42.2339 225.643 46.2061 230.643 46.2061C235.643 46.2061 240.405 42.2339 240.405 35.3425ZM250.548 50.3696V20.3632H255.929V25.2446H256.167C257.405 21.7989 261.691 19.5975 264.833 19.5975C266.643 19.5975 267.881 19.8368 269.024 20.3154L266.881 25.5796C266.071 25.2925 265.119 25.1489 263.881 25.1489C260.024 25.1489 256.119 28.4032 256.119 33.9068V50.3696H250.548ZM270.929 55.8254L276.071 53.6718C277.167 56.8782 280.405 59.4146 284.405 59.4146C290.643 59.4146 294.357 55.3946 294.357 49.0775V46.2061H294.119C292.31 48.9818 288.691 51.3746 283.929 51.3746C276.31 51.3746 269.738 44.5789 269.738 35.3904C269.738 26.2018 276.31 19.4061 283.929 19.4061C288.691 19.4061 292.262 21.7989 294.119 24.5746H294.357V20.4111H299.738V48.8861C299.738 59.7975 292.31 64.6311 284.452 64.6311C276.595 64.6311 272.452 59.4146 270.929 55.8254ZM294.357 35.3425C294.357 28.4989 289.833 24.4789 284.833 24.4789C279.833 24.4789 275.31 28.5946 275.31 35.3425C275.31 42.0904 279.833 46.2061 284.833 46.2061C289.833 46.2061 294.357 42.2339 294.357 35.3425Z" fill="#757575"/>
</svg>
