<svg width="360" height="90" viewBox="0 0 360 90" fill="none" xmlns="http://www.w3.org/2000/svg">
<path d="M280.953 21.7305C280.953 21.7305 280.953 54.0508 280.953 54.0508C280.953 55.6477 281.788 56.5806 282.648 57.168C283.571 57.7875 284.925 58.0977 286.75 58.0977C287.904 58.0977 289.43 57.7148 289.43 57.7148C289.43 57.7148 289.43 54.8164 289.43 54.8164C288.972 54.8448 288.567 54.8711 288.117 54.8711C285.401 54.8711 285 53.8099 285 52.6289C285 52.6289 285 21.7305 285 21.7305L280.953 21.7305ZM195.477 22.0586C192.426 22.0586 189.669 23.0154 187.711 24.7383C185.81 26.4189 184.758 28.7386 184.758 31.2461C184.758 34.0077 185.875 36.1656 188.203 37.8633C190.256 39.3624 192.971 40.3303 195.586 41.2539C200.131 42.8705 204.391 44.346 204.391 48.4727C204.391 50.3079 203.766 51.8813 202.586 52.957C201.288 54.14 199.421 54.707 196.953 54.707C192.628 54.707 189.479 52.3122 187.711 47.6523C187.711 47.6523 183.828 48.6914 183.828 48.6914C184.664 50.5812 186.087 53.3084 188.148 55.1445C190.409 57.1725 193.214 58.1523 196.734 58.1523C200.903 58.1523 204.067 57.0771 206.141 54.9258C208.291 52.6862 208.766 49.82 208.766 47.8164C208.766 44.9453 207.552 42.7282 205.102 40.9805C202.962 39.4459 200.194 38.4569 197.5 37.5352C193.111 36.0342 188.922 34.6057 188.969 30.918C188.984 29.1984 189.581 27.8598 190.664 26.9258C191.768 25.9769 193.342 25.5039 195.367 25.5039C197.494 25.5039 199.391 26.0985 200.836 27.2539C202.165 28.3062 203.132 29.868 203.57 31.6289C203.57 31.6289 207.344 31.1367 207.344 31.1367C205.688 25.4929 201.642 22.0586 195.477 22.0586ZM22.5 22.5508V57.6602H26.5469V25.5586L26.6563 25.668L36.2813 57.6602H39.3984L49.0781 25.668L49.1328 25.5586V57.6602H53.1797V22.5508H46.4531L37.8672 50.7695V50.8789L37.8125 50.7695L29.2266 22.5508H22.5ZM215.164 23.2617V31.6836H211.281V34.9102C211.281 34.9102 215.164 34.9102 215.164 34.9102C215.164 34.9102 215.164 52.9562 215.164 54.0508C215.164 55.6477 215.891 56.5806 216.75 57.168C217.674 57.7875 219.025 58.0977 220.852 58.0977C222.007 58.0977 223.586 57.7148 223.586 57.7148C223.586 57.7148 223.586 54.8164 223.586 54.8164C223.137 54.8448 222.666 54.8711 222.219 54.8711C219.499 54.8711 219.211 53.8099 219.211 52.6289C219.211 52.6289 219.211 34.9102 219.211 34.9102H223.586V31.6836H219.211V23.2617H215.164ZM69.5859 31.1914C66.1783 31.1914 63.2901 32.5644 61.2734 35.1289C59.4018 37.5222 58.375 40.9032 58.375 44.6445C58.375 48.3893 59.4018 51.7641 61.2734 54.1602C63.2901 56.7314 66.1783 58.0977 69.5859 58.0977C73.0076 58.0977 75.887 56.7314 77.8984 54.1602C79.7703 51.7641 80.7969 48.3893 80.7969 44.6445C80.7969 40.9032 79.7703 37.5222 77.8984 35.1289C75.887 32.5644 73.0076 31.1914 69.5859 31.1914ZM303.047 31.2461C301.317 31.2461 299.709 31.564 298.344 32.1758C297.008 32.7779 295.821 33.6845 294.898 34.8555C293.063 37.1537 292 40.5657 292 44.6992C292 49.2997 293.322 52.8099 295.719 55.1445C298.247 57.6124 301.469 58.0977 303.703 58.0977C309.51 58.0977 312.358 54.956 313.547 52.082C313.547 52.082 310.32 50.4961 310.32 50.4961C309.536 52.2459 307.733 54.9258 303.703 54.9258C301.4 54.9258 299.516 53.9827 298.18 52.2461C296.889 50.5655 296.163 48.2394 296.156 45.4648C296.156 45.4649 313.875 45.4648 313.875 45.4648C313.875 45.4649 313.875 43.0039 313.875 43.0039C313.875 38.7529 312.743 35.5828 310.648 33.6523C308.865 32.0125 306.363 31.2461 303.047 31.2461ZM111.039 31.3008C106.473 31.3008 99.9922 34.3729 99.9922 44.6992C99.9922 54.7257 106.453 58.0977 110.82 58.0977C113.369 58.0977 115.685 56.6856 117.273 54.6524C117.273 54.6524 117.492 54.543 117.492 54.543C117.492 54.543 117.492 59.4649 117.492 59.4649C117.492 62.9168 114.505 65.043 111.313 65.043C108.209 65.043 105.462 64.4505 103.219 63.4024C103.219 63.4024 103.219 66.9024 103.219 66.9024C105.108 67.712 108.182 68.2149 110.82 68.2149C118.004 68.2149 121.43 64.2611 121.43 58.5352C121.43 58.5352 121.43 31.793 121.43 31.793H118.422L117.547 34.5274C116.062 32.5928 114.118 31.3008 111.039 31.3008ZM137.18 31.3008C131.432 31.3008 128.711 34.7438 127.555 36.8789L130.781 38.5742C131.234 37.3542 132.864 34.5274 137.234 34.5274C140.68 34.5274 142.43 36.0482 142.43 39.0664V39.9961C142.43 39.9961 142.458 40.2787 142.375 40.3789C142.247 40.5405 141.884 40.6726 141.008 40.7617C136.183 41.3 132.976 42.0924 130.617 43.6055C128.056 45.2515 126.461 47.556 126.461 50.7149C126.461 52.9588 127.547 54.874 128.977 56.2383C130.305 57.4947 132.116 58.1484 134.117 58.207C138.377 58.3437 141.181 56.5708 142.539 54.4883C142.644 55.9192 143.157 56.7367 144.289 57.332C145.352 57.8997 147.095 57.7868 147.844 57.6055C147.844 57.6055 147.844 54.8711 147.844 54.8711C146.942 54.8261 146.367 54.3971 146.367 53.2852C146.367 53.2852 146.367 40.7617 146.367 40.7617C146.367 40.7617 146.367 39.1211 146.367 39.1211C146.367 36.5366 145.353 34.4167 143.414 33.0508C141.816 31.9164 139.582 31.3008 137.18 31.3008H137.18ZM165.016 31.3008C162.382 31.3008 159.686 32.6652 157.414 35.2383V31.793H153.367V57.7149H157.414C157.414 57.7149 157.414 38.4649 157.414 38.4649C158.791 36.9934 161.878 34.5274 164.688 34.5274C167.504 34.5274 168.734 35.909 168.734 39.0117C168.734 39.0117 168.734 57.7149 168.734 57.7149H172.781V38.9024C172.781 33.3017 168.798 31.3008 165.016 31.3008ZM238.242 31.3008C232.498 31.3008 229.777 34.7438 228.617 36.8789C228.617 36.8789 231.844 38.5742 231.844 38.5742C232.298 37.3542 233.927 34.5274 238.297 34.5274C241.742 34.5274 243.492 36.0482 243.492 39.0664C243.492 39.0664 243.492 39.9961 243.492 39.9961C243.492 39.9961 243.464 40.2787 243.383 40.3789C243.257 40.5405 242.95 40.6726 242.07 40.7617C237.246 41.2991 234.038 42.0924 231.68 43.6055C229.12 45.2515 227.523 47.556 227.523 50.7149C227.524 52.9588 228.608 54.8731 230.039 56.2383C231.368 57.4947 233.18 58.1484 235.18 58.207C239.436 58.3437 242.243 56.5708 243.602 54.4883C243.709 55.9185 244.218 56.7367 245.352 57.332C246.413 57.8997 248.156 57.7868 248.906 57.6055C248.906 57.6055 248.906 54.8711 248.906 54.8711C248.006 54.8261 247.43 54.3971 247.43 53.2852C247.43 53.2852 247.43 40.7617 247.43 40.7617C247.43 40.7617 247.43 39.1211 247.43 39.1211C247.43 36.5366 246.363 34.4167 244.422 33.0508C242.822 31.9164 240.643 31.3008 238.242 31.3008ZM266.078 31.3008C263.437 31.3008 260.749 32.6652 258.477 35.2383V31.793H254.43V57.7149H258.477C258.477 57.7149 258.477 38.4649 258.477 38.4649C259.856 36.9925 262.937 34.5274 265.75 34.5274C268.562 34.5274 269.797 35.909 269.797 39.0117V57.7149H273.844V38.9024C273.844 33.3017 269.861 31.3008 266.078 31.3008ZM98.4609 31.4102C94.355 31.4102 91.9216 33.002 89.8203 36.7695V36.4961V31.793H85.7734V57.6602H89.8203C89.8203 57.6602 89.8203 43.0039 89.8203 43.0039C90.8194 37.6797 93.6382 35.1836 98.4609 35.1836V31.4102ZM316.609 31.7383L325.633 57.4414V57.6602C325.094 60.1236 323.534 63.1645 322.133 64.1133C320.895 64.9532 319.555 65.043 318.523 65.043C318.026 65.043 316.997 64.8749 316.555 64.7695C316.555 64.7695 316.555 67.8867 316.555 67.8867C317.115 68.0241 318.407 68.2695 319.234 68.2695C321.163 68.2696 322.789 67.7868 324.156 66.793C325.793 65.6033 327.606 62.5027 328.477 59.8477C328.477 59.8477 337.5 31.7383 337.5 31.7383H333.563L327.656 51.6445L327.602 52.082L327.492 51.6445L320.547 31.7383H316.609ZM69.5859 34.418C73.9426 34.418 76.5313 38.2419 76.5313 44.6445C76.5312 51.0489 73.9426 54.8711 69.5859 54.8711C65.2363 54.8711 62.6406 51.0489 62.6406 44.6445C62.6406 38.2419 65.2363 34.418 69.5859 34.418ZM111.313 34.4727C113.596 34.4727 115.6 35.4592 117.492 37.8086C117.492 37.8086 117.492 50.168 117.492 50.168C116.445 53.1491 113.445 54.8711 111.313 54.8711C107.139 54.8711 104.258 52.2725 104.258 44.4805C104.258 37.9285 106.844 34.4727 111.313 34.4727ZM303.156 34.4727C307.793 34.4727 309.866 36.9244 309.883 42.2383C309.883 42.2383 296.266 42.2383 296.266 42.2383C296.618 36.9287 298.843 34.4727 303.156 34.4727ZM142.539 43.6055C142.539 43.6055 142.539 50.168 142.539 50.168C142.353 52.4336 138.119 55.1758 134.664 54.9805C132.758 54.8759 130.922 53.3412 130.727 50.8242C130.41 46.6182 133.571 44.8718 140.625 44.0977C141.116 44.0527 142.065 43.8785 142.539 43.6055ZM243.602 43.6055V50.168C243.415 52.4326 239.181 55.1758 235.727 54.9805C233.824 54.8751 231.979 53.3403 231.789 50.8242C231.468 46.6182 234.632 44.8718 241.688 44.0977C242.175 44.0527 243.132 43.8785 243.602 43.6055Z" fill="black"/>
</svg>
