<svg width="341" height="179" viewBox="0 0 341 179" fill="none" xmlns="http://www.w3.org/2000/svg">
<path d="M52.2676 92.7026C67.283 92.7026 80.4072 84.5246 87.4565 72.4006L82.4704 69.5412C76.4528 79.8923 65.2198 86.9265 52.3249 86.9265C33.0684 86.9265 17.5371 71.3141 17.5371 52.2131C17.5371 32.9978 33.0684 17.4425 52.3249 17.4425C65.2198 17.4425 76.4528 24.4195 82.4704 34.8278L87.4565 31.9684C80.4645 19.8444 67.3403 11.6665 52.2676 11.6665C29.859 11.6665 11.6341 29.8524 11.6341 52.2703C11.6341 74.5166 29.859 92.7026 52.2676 92.7026Z" fill="#5FAD3D"/>
<path d="M58.056 34.7134H55.1331V37.63H58.056V34.7134Z" fill="white"/>
<path d="M58.056 40.5466H55.1331V63.708H58.056V40.5466Z" fill="#024597"/>
<path d="M63.8444 34.7134H66.7672V40.5467H78.344V43.4061H66.7672V57.8748C66.7672 59.476 68.0281 60.7914 69.6328 60.7914H78.344V63.6508H69.6328C66.5953 63.6508 63.7871 61.2489 63.7871 57.8176V43.4061H59.4314V40.5467H63.7871V34.7134H63.8444Z" fill="#024597"/>
<path d="M48.9435 49.2393H29.5724C29.6298 47.1233 30.1456 45.6364 31.1772 44.8358C31.8649 44.2639 32.7245 43.8636 33.9854 43.6348C35.1889 43.3489 36.9082 43.2917 39.3153 43.2917C41.6077 43.2917 43.3844 43.3489 44.6452 43.6348C45.8487 43.8636 46.7657 44.2067 47.4535 44.8358C48.4277 45.6364 48.9435 47.0661 48.9435 49.2393ZM29.5724 52.1559H52.2676C52.2676 49.5824 52.0956 47.6952 51.8091 46.4371C51.5225 45.1789 51.0067 44.0923 50.2617 43.1201C49.2874 42.0336 48.1412 41.2329 46.5938 40.8326C45.1037 40.4895 42.6393 40.2607 39.2007 40.2607C35.762 40.2607 33.2977 40.4895 31.7503 40.8326C30.2029 41.1757 28.9993 42.0336 28.1397 43.1201C27.3373 44.0923 26.8215 45.1789 26.5923 46.4371C26.3057 47.6952 26.1338 49.5824 26.0765 52.1559C26.1338 54.6722 26.3057 56.5594 26.5923 57.8176C26.8215 59.0757 27.3373 60.1623 28.1397 61.1345C28.9993 62.2211 30.2029 63.0217 31.7503 63.4221C33.2977 63.8796 35.7047 63.9939 39.2007 63.9939C42.582 63.9939 45.1037 63.8224 46.5938 63.4221C48.1412 63.0789 49.3447 62.2211 50.2617 61.1345C50.8348 60.3911 51.2933 59.5332 51.5798 58.6182H48.1412C47.9119 58.9042 47.6827 59.1901 47.3961 59.476C46.7084 59.9907 45.7914 60.4482 44.5879 60.677C43.3271 60.9058 41.5504 60.9629 39.258 60.9629C36.9082 60.9629 35.1316 60.9058 33.9281 60.677C32.6672 60.4482 31.8076 59.9907 31.1198 59.476C30.2602 58.7326 29.7444 57.4744 29.5724 55.816C29.5724 54.6722 29.5724 53.3569 29.5724 52.1559Z" fill="#024597"/>
<path d="M52.2676 104.255C81.095 104.255 104.535 80.9217 104.535 52.1559C104.535 23.3329 81.095 0 52.2676 0C42.7539 0 33.8134 2.51629 26.1911 6.977L29.0566 11.9524C35.934 8.00639 43.7855 5.77604 52.2676 5.77604C77.9429 5.77604 98.6894 26.5355 98.6894 52.0987C98.6894 77.6048 77.8856 98.4214 52.2676 98.4214C26.6496 98.4214 5.84571 77.6048 5.84571 52.0987H0C0 80.9217 23.4402 104.255 52.2676 104.255Z" fill="#024597"/>
<path d="M142.647 55.816H145.627C145.57 57.9319 145.398 59.3617 145.226 60.1623C144.825 61.878 143.678 62.9645 141.787 63.3077C140.24 63.6508 137.432 63.7652 133.42 63.7652C128.205 63.7652 124.709 63.5936 122.875 63.2505C121.155 62.9073 119.952 61.9923 119.379 60.5054C118.806 59.0185 118.462 56.3879 118.462 52.499C118.462 48.7818 118.691 46.0939 119.149 44.4355C119.665 42.4339 121.098 41.2901 123.333 40.947C125.511 40.6038 128.72 40.4323 132.904 40.4323C136.916 40.4323 139.781 40.6038 141.501 41.0042C142.36 41.1757 143.105 41.576 143.736 42.1479C144.366 42.7198 144.767 43.3489 144.939 44.0923C145.111 44.7786 145.226 46.1511 145.226 48.1527H142.36C142.36 47.7524 142.36 47.4665 142.36 47.3521C142.36 46.2655 142.246 45.4649 142.016 45.0073C141.787 44.5498 141.386 44.2067 140.756 43.9208C139.609 43.4633 136.916 43.2345 132.732 43.2345C129.695 43.2345 127.402 43.2917 125.855 43.4633C124.307 43.6348 123.333 43.8636 122.875 44.2639C122.416 44.607 122.13 45.3505 121.9 46.4942C121.671 47.638 121.614 49.1821 121.614 51.1837C121.614 52.1559 121.671 53.3569 121.728 54.8438C121.786 56.3307 121.9 57.3601 121.958 57.9319C122.072 58.847 122.359 59.476 122.817 59.8764C123.276 60.2767 123.964 60.5054 124.938 60.6198C126.714 60.7914 129.179 60.9057 132.446 60.9057C133.42 60.9057 134.738 60.8486 136.343 60.7914C137.947 60.7342 138.979 60.677 139.437 60.6198C140.297 60.5054 140.928 60.3339 141.386 60.1051C141.787 59.8764 142.074 59.5332 142.246 59.0757C142.475 58.7898 142.59 57.646 142.647 55.816Z" fill="#024597"/>
<path d="M148.836 40.5466H151.358V63.708H148.836V40.5466Z" fill="#024597"/>
<path d="M154.797 40.5466H157.319V43.5776H154.797V40.5466ZM154.797 47.638H157.319V63.708H154.797V47.638Z" fill="#024597"/>
<path d="M161.101 47.638H163.68V49.754C164.482 48.7818 165.285 48.1527 166.087 47.8668C166.889 47.5808 168.322 47.4093 170.271 47.4093C172.907 47.4093 174.798 47.5808 175.945 47.9812C177.091 48.3815 178.008 49.1249 178.638 50.2115C179.154 49.1821 179.956 48.4387 181.045 48.0383C182.134 47.638 183.853 47.4093 186.146 47.4093C188.324 47.4093 189.986 47.5236 191.075 47.8096C192.164 48.0955 193.08 48.6102 193.711 49.3537C194.227 49.9256 194.571 50.6118 194.743 51.3553C194.914 52.0987 194.972 53.4141 194.972 55.2441V63.708H192.45V54.6722C192.45 52.6706 192.164 51.4125 191.59 50.8406C190.788 50.0399 189.011 49.6968 186.146 49.6968C184.541 49.6968 183.28 49.8112 182.421 50.0399C181.561 50.2687 180.931 50.6118 180.472 51.1265C180.014 51.6412 179.727 52.3275 179.555 53.1853C179.383 54.0431 179.326 55.4728 179.326 57.4173V63.7652H176.804V54.6722C176.804 53.5284 176.747 52.6706 176.632 52.1559C176.518 51.6412 176.288 51.1837 175.945 50.8406C175.142 50.0399 173.308 49.6396 170.443 49.6396C168.838 49.6396 167.577 49.754 166.66 49.9828C165.8 50.2115 165.113 50.5546 164.654 51.1265C164.253 51.584 163.967 52.2131 163.852 53.0137C163.737 53.8144 163.68 55.2441 163.68 57.3601V63.708H161.158V47.638H161.101Z" fill="#024597"/>
<path d="M200.474 52.4419H197.837C197.837 52.1559 197.78 51.9272 197.78 51.7556C197.78 50.0971 198.41 48.8962 199.671 48.3243C200.932 47.6952 203.339 47.4093 206.835 47.4093C209.586 47.4093 211.535 47.5236 212.738 47.8096C213.942 48.0383 214.859 48.553 215.546 49.2393C216.119 49.8112 216.463 50.4975 216.635 51.2409C216.807 51.9844 216.865 53.3569 216.865 55.3013V63.7652H214.343L214.4 61.878H214.286C213.655 62.7358 212.91 63.3077 211.993 63.5936C211.076 63.8224 209.414 63.9939 206.95 63.9939C204.142 63.9939 202.193 63.9367 201.047 63.7652C199.9 63.5936 199.098 63.3649 198.525 62.9074C197.952 62.507 197.551 61.9923 197.322 61.4205C197.092 60.8486 196.978 60.0479 196.978 59.0185C196.978 57.7604 197.15 56.8454 197.493 56.1591C197.837 55.4728 198.41 55.0153 199.213 54.6722C200.072 54.2719 202.078 54.1003 205.23 54.1003C208.554 54.1003 210.732 54.2147 211.707 54.3863C212.738 54.5578 213.54 55.0725 214.056 55.816H214.286V54.1003C214.286 52.6706 214.056 51.6412 213.54 51.0693C213.082 50.4974 212.394 50.1543 211.477 49.9256C210.56 49.754 209.07 49.6396 206.95 49.6396C204.199 49.6396 202.422 49.8112 201.62 50.0971C200.817 50.4403 200.416 51.1265 200.416 52.2131C200.474 52.2703 200.474 52.3847 200.474 52.4419ZM207.007 56.3879C204.887 56.3879 203.454 56.4451 202.594 56.5022C201.734 56.5594 201.161 56.731 200.817 56.9026C200.13 57.3029 199.786 58.0463 199.786 59.0757C199.786 60.1051 200.187 60.8486 200.989 61.1917C201.62 61.4776 203.798 61.6492 207.523 61.6492C210.216 61.6492 211.993 61.4776 212.91 61.1345C213.77 60.7914 214.228 60.0479 214.228 59.0185C214.228 57.9891 213.77 57.3029 212.738 56.9026C211.764 56.5594 209.873 56.3879 207.007 56.3879Z" fill="#024597"/>
<path d="M221.679 43.6348H224.2V47.638H235.548V49.8112H224.258V56.7882C224.258 58.3323 224.315 59.2473 224.372 59.5904C224.43 59.9335 224.601 60.2767 224.888 60.6198C225.232 61.0201 225.69 61.3061 226.321 61.4776C226.951 61.6492 227.868 61.7064 229.129 61.7064C230.275 61.7064 231.135 61.6492 231.651 61.4776C232.167 61.3061 232.568 61.0201 232.854 60.6198C233.026 60.3339 233.198 59.9907 233.255 59.5904C233.313 59.1901 233.37 58.5038 233.37 57.5316V56.5022H235.892V57.5316C235.892 58.7898 235.834 59.7048 235.72 60.3339C235.605 60.9629 235.376 61.5348 235.032 62.0495C234.574 62.7358 233.829 63.2505 232.912 63.5364C231.995 63.8224 230.676 63.9939 228.957 63.9939C227.238 63.9939 225.862 63.8796 224.888 63.5936C223.914 63.3077 223.169 62.8502 222.71 62.2211C222.366 61.7636 222.137 61.1917 222.022 60.5626C221.908 59.9335 221.851 59.0185 221.851 57.7032V49.8112H217.896V47.638H221.851V43.6348H221.679Z" fill="#024597"/>
<path d="M255.549 58.7326H258.243C258.186 60.677 257.498 61.9923 256.18 62.7358C254.862 63.4792 252.569 63.8795 249.303 63.8795C246.609 63.8795 244.546 63.7652 243.17 63.5936C241.795 63.3649 240.706 63.0217 240.018 62.507C238.413 61.3633 237.554 59.0757 237.554 55.6444C237.554 53.2425 237.898 51.4696 238.585 50.2687C239.216 49.1249 240.19 48.3815 241.451 47.9812C242.712 47.5808 244.775 47.3521 247.641 47.3521C250.391 47.3521 252.397 47.5236 253.658 47.8096C254.919 48.0955 255.893 48.6674 256.638 49.5252C257.269 50.2115 257.67 51.0693 257.899 51.9843C258.128 52.8994 258.243 54.3291 258.3 56.2163H240.305C240.362 58.2179 240.763 59.5904 241.508 60.3339C241.967 60.8486 242.769 61.1917 243.858 61.3633C244.947 61.5348 246.666 61.6492 249.073 61.6492C250.907 61.6492 252.225 61.592 253.085 61.4204C253.945 61.2489 254.575 60.9629 254.976 60.5054C255.263 60.1623 255.492 59.5904 255.549 58.7326ZM255.435 54.0431C255.435 52.499 254.976 51.3553 254.174 50.7262C253.658 50.3259 252.856 50.0399 251.882 49.8684C250.907 49.6968 249.474 49.6396 247.583 49.6396C245.921 49.6396 244.66 49.6968 243.801 49.8684C242.941 50.0399 242.253 50.2687 241.795 50.669C240.992 51.2981 240.534 52.4419 240.419 54.0431H255.435Z" fill="#024597"/>
<path d="M260.077 53.9859H273.717V56.9597H260.077V53.9859Z" fill="#024597"/>
<path d="M275.436 40.5466H278.531V50.4974H282.543L297.558 40.5466H303.003L285.752 51.87L303.92 63.708H298.418L282.543 53.2425H278.531V63.708H275.436V40.5466Z" fill="#024597"/>
<path d="M305.467 40.5466H308.562V63.708H305.467V40.5466Z" fill="#024597"/>
<path d="M335.613 55.816H338.593C338.536 57.9319 338.364 59.3617 338.192 60.1623C337.791 61.878 336.644 62.9645 334.753 63.3077C333.206 63.6508 330.397 63.7652 326.386 63.7652C321.17 63.7652 317.674 63.5936 315.84 63.2505C314.121 62.9073 312.918 61.9923 312.345 60.5054C311.771 59.0185 311.428 56.3879 311.428 52.499C311.428 48.7818 311.657 46.0939 312.115 44.4355C312.631 42.4339 314.064 41.2901 316.299 40.947C318.477 40.6038 321.686 40.4323 325.87 40.4323C329.882 40.4323 332.747 40.6038 334.467 41.0042C335.326 41.1757 336.071 41.576 336.702 42.1479C337.332 42.7198 337.733 43.3489 337.905 44.0923C338.077 44.7786 338.192 46.1511 338.192 48.1527H335.326C335.326 47.7524 335.326 47.4665 335.326 47.3521C335.326 46.2655 335.212 45.4649 334.982 45.0073C334.753 44.5498 334.352 44.2067 333.721 43.9208C332.575 43.4633 329.882 43.2345 325.698 43.2345C322.66 43.2345 320.368 43.2917 318.821 43.4633C317.273 43.6348 316.299 43.8636 315.84 44.2639C315.382 44.607 315.095 45.3505 314.866 46.4942C314.637 47.638 314.58 49.1821 314.58 51.1837C314.58 52.1559 314.637 53.3569 314.694 54.8438C314.752 56.3307 314.866 57.3601 314.924 57.9319C315.038 58.847 315.325 59.476 315.783 59.8764C316.242 60.2767 316.929 60.5054 317.904 60.6198C319.68 60.7914 322.145 60.9057 325.411 60.9057C326.386 60.9057 327.704 60.8486 329.309 60.7914C330.913 60.7342 331.945 60.677 332.403 60.6198C333.263 60.5054 333.893 60.3339 334.352 60.1051C334.753 59.8764 335.04 59.5332 335.212 59.0757C335.498 58.7898 335.613 57.646 335.613 55.816Z" fill="#024597"/>
<path d="M111.183 156.1C111.184 156.189 111.178 156.277 111.166 156.365C111.158 156.431 111.137 156.495 111.104 156.554C111.081 156.597 111.046 156.635 111.004 156.662C110.965 156.685 110.921 156.697 110.876 156.696H105.438C105.3 156.695 105.165 156.649 105.057 156.566C104.938 156.479 104.879 156.327 104.879 156.109V146.418C104.879 146.201 104.938 146.048 105.057 145.962C105.165 145.878 105.3 145.832 105.438 145.831H110.815C110.86 145.83 110.904 145.842 110.942 145.865C110.983 145.892 111.014 145.93 111.031 145.974C111.058 146.034 111.076 146.098 111.088 146.163C111.104 146.256 111.111 146.35 111.11 146.444C111.111 146.533 111.103 146.621 111.088 146.708C111.077 146.772 111.058 146.834 111.031 146.893C111.013 146.936 110.982 146.972 110.942 146.998C110.904 147.021 110.86 147.032 110.815 147.032H106.385V150.441H110.186C110.231 150.441 110.275 150.454 110.312 150.478C110.352 150.506 110.385 150.542 110.409 150.584C110.439 150.641 110.458 150.704 110.465 150.768C110.478 150.86 110.484 150.953 110.483 151.045C110.484 151.131 110.478 151.217 110.465 151.302C110.457 151.364 110.438 151.424 110.409 151.479C110.386 151.519 110.353 151.552 110.312 151.575C110.273 151.595 110.23 151.605 110.186 151.605H106.385V155.492H110.876C110.921 155.491 110.965 155.503 111.004 155.525C111.045 155.553 111.08 155.589 111.104 155.631C111.137 155.688 111.158 155.751 111.166 155.815C111.179 155.91 111.184 156.005 111.183 156.1Z" fill="#2D2D2D"/>
<path d="M119.204 156.308C119.205 156.35 119.195 156.391 119.176 156.427C119.15 156.464 119.115 156.493 119.074 156.51C119.013 156.537 118.949 156.555 118.883 156.563C118.788 156.576 118.692 156.582 118.595 156.581C118.494 156.582 118.392 156.576 118.291 156.563C118.226 156.555 118.163 156.537 118.103 156.51C118.065 156.493 118.032 156.464 118.01 156.427C117.993 156.39 117.985 156.349 117.986 156.308V155.261C117.57 155.76 117.159 156.124 116.752 156.352C116.372 156.574 115.948 156.691 115.517 156.695C115.094 156.708 114.673 156.616 114.287 156.427C113.968 156.263 113.691 156.017 113.48 155.71C113.268 155.394 113.118 155.035 113.037 154.654C112.94 154.174 112.895 153.682 112.903 153.19V148.392C112.902 148.351 112.912 148.31 112.932 148.274C112.959 148.233 112.998 148.202 113.042 148.185C113.109 148.155 113.18 148.136 113.253 148.131C113.339 148.123 113.447 148.118 113.577 148.118C113.707 148.118 113.816 148.123 113.902 148.131C113.973 148.136 114.043 148.154 114.109 148.185C114.152 148.204 114.19 148.235 114.219 148.274C114.241 148.309 114.252 148.35 114.251 148.392V153.001C114.243 153.375 114.274 153.748 114.344 154.113C114.397 154.369 114.493 154.613 114.629 154.83C114.753 155.023 114.919 155.18 115.112 155.287C115.324 155.399 115.558 155.455 115.794 155.449C116.157 155.439 116.509 155.303 116.796 155.062C117.194 154.736 117.55 154.355 117.857 153.929V148.392C117.855 148.351 117.865 148.31 117.885 148.274C117.912 148.233 117.95 148.202 117.994 148.185C118.06 148.155 118.13 148.137 118.202 148.131C118.284 148.123 118.394 148.118 118.533 148.118C118.671 148.118 118.771 148.123 118.857 148.131C118.927 148.135 118.996 148.154 119.06 148.185C119.102 148.206 119.139 148.236 119.169 148.274C119.195 148.307 119.208 148.349 119.207 148.392L119.204 156.308Z" fill="#2D2D2D"/>
<path d="M126.657 149.032C126.657 149.16 126.657 149.268 126.648 149.357C126.645 149.427 126.634 149.496 126.614 149.563C126.6 149.605 126.578 149.645 126.548 149.678C126.518 149.705 126.48 149.719 126.44 149.717C126.381 149.714 126.323 149.701 126.269 149.678C126.202 149.651 126.126 149.625 126.043 149.599C125.959 149.573 125.865 149.548 125.76 149.524C125.648 149.5 125.534 149.488 125.42 149.489C125.273 149.489 125.128 149.52 124.993 149.578C124.831 149.651 124.681 149.749 124.549 149.868C124.37 150.03 124.208 150.21 124.065 150.405C123.897 150.628 123.71 150.9 123.509 151.222V156.424C123.51 156.466 123.497 156.508 123.473 156.542C123.443 156.58 123.404 156.608 123.359 156.626C123.29 156.654 123.217 156.671 123.142 156.678C123.024 156.692 122.906 156.698 122.787 156.696C122.67 156.697 122.554 156.691 122.438 156.678C122.362 156.671 122.287 156.653 122.215 156.626C122.17 156.61 122.131 156.581 122.103 156.542C122.081 156.507 122.071 156.466 122.072 156.424V148.513C122.071 148.472 122.08 148.432 122.098 148.395C122.123 148.355 122.16 148.324 122.203 148.305C122.266 148.276 122.334 148.258 122.403 148.252C122.485 148.244 122.592 148.239 122.726 148.239C122.86 148.239 122.959 148.244 123.043 148.252C123.112 148.256 123.178 148.275 123.24 148.305C123.28 148.326 123.314 148.357 123.34 148.395C123.361 148.431 123.371 148.472 123.37 148.513V149.664C123.552 149.391 123.755 149.132 123.976 148.891C124.137 148.716 124.315 148.558 124.509 148.421C124.662 148.314 124.831 148.234 125.011 148.184C125.174 148.14 125.342 148.118 125.511 148.118C125.597 148.118 125.682 148.123 125.768 148.132C125.869 148.141 125.969 148.157 126.069 148.179C126.164 148.2 126.259 148.227 126.352 148.259C126.416 148.278 126.476 148.308 126.529 148.348C126.559 148.37 126.583 148.399 126.599 148.432C126.613 148.464 126.623 148.498 126.63 148.533C126.64 148.592 126.646 148.652 126.647 148.712C126.655 148.79 126.657 148.897 126.657 149.032Z" fill="#2D2D2D"/>
<path d="M134.68 152.322C134.686 152.917 134.599 153.51 134.421 154.079C134.265 154.587 134.002 155.058 133.65 155.462C133.3 155.857 132.861 156.167 132.367 156.37C131.801 156.597 131.193 156.708 130.58 156.696C129.992 156.708 129.406 156.61 128.855 156.408C128.384 156.231 127.963 155.945 127.629 155.576C127.291 155.19 127.041 154.738 126.898 154.25C126.73 153.675 126.649 153.08 126.658 152.482C126.652 151.888 126.737 151.296 126.912 150.726C127.066 150.218 127.327 149.747 127.678 149.343C128.027 148.949 128.465 148.64 128.958 148.44C129.526 148.215 130.136 148.106 130.749 148.119C131.338 148.107 131.923 148.204 132.475 148.405C132.946 148.583 133.366 148.869 133.699 149.238C134.039 149.624 134.29 150.076 134.435 150.564C134.605 151.135 134.688 151.728 134.68 152.322ZM133.156 152.418C133.158 152.015 133.118 151.614 133.035 151.22C132.964 150.87 132.828 150.535 132.634 150.232C132.448 149.947 132.187 149.715 131.879 149.559C131.144 149.237 130.304 149.229 129.563 149.538C129.253 149.684 128.986 149.903 128.785 150.175C128.572 150.468 128.418 150.798 128.331 151.147C128.229 151.55 128.179 151.964 128.182 152.38C128.18 152.784 128.221 153.188 128.304 153.585C128.374 153.935 128.512 154.269 128.709 154.57C128.9 154.852 129.161 155.082 129.469 155.238C129.838 155.414 130.245 155.499 130.656 155.485C131.043 155.495 131.428 155.418 131.78 155.26C132.091 155.115 132.36 154.897 132.563 154.626C132.776 154.334 132.929 154.003 133.012 153.654C133.111 153.249 133.16 152.834 133.156 152.418Z" fill="#2D2D2D"/>
<path d="M144.423 152.606C144.431 153.188 144.354 153.769 144.194 154.333C144.063 154.801 143.833 155.242 143.519 155.633C143.23 155.983 142.852 156.265 142.418 156.455C141.948 156.654 141.433 156.753 140.914 156.745C140.69 156.746 140.466 156.724 140.247 156.679C140.039 156.634 139.838 156.566 139.649 156.475C139.443 156.377 139.249 156.26 139.069 156.125C138.876 155.984 138.672 155.818 138.457 155.627V159.293C138.458 159.333 138.446 159.373 138.421 159.407C138.391 159.444 138.35 159.473 138.303 159.49C138.231 159.516 138.156 159.533 138.078 159.539C137.957 159.551 137.834 159.557 137.712 159.556C137.591 159.557 137.471 159.551 137.351 159.539C137.272 159.532 137.195 159.516 137.121 159.49C137.073 159.475 137.032 159.446 137.004 159.407C136.983 159.372 136.972 159.333 136.973 159.293V149.055C136.972 149.014 136.981 148.974 137 148.937C137.026 148.901 137.064 148.874 137.108 148.86C137.174 148.835 137.244 148.82 137.314 148.814C137.399 148.806 137.498 148.802 137.62 148.802C137.742 148.802 137.85 148.806 137.931 148.814C138 148.82 138.069 148.835 138.133 148.86C138.226 148.886 138.286 148.967 138.277 149.055V150.04C138.502 149.83 138.739 149.632 138.988 149.445C139.203 149.286 139.433 149.146 139.677 149.026C139.903 148.918 140.141 148.833 140.389 148.773C140.64 148.716 140.899 148.688 141.158 148.69C141.746 148.69 142.247 148.793 142.661 148.999C143.07 149.202 143.416 149.493 143.67 149.846C143.942 150.229 144.136 150.652 144.242 151.097C144.365 151.592 144.425 152.099 144.423 152.606ZM142.884 152.762C142.886 152.397 142.855 152.033 142.792 151.674C142.738 151.349 142.628 151.034 142.466 150.741C142.323 150.48 142.109 150.256 141.846 150.089C141.559 149.919 141.22 149.833 140.877 149.845C140.683 149.845 140.491 149.871 140.306 149.923C140.104 149.98 139.912 150.062 139.735 150.167C139.518 150.296 139.315 150.443 139.129 150.606C138.889 150.817 138.665 151.041 138.459 151.279V154.195C138.798 154.583 139.19 154.931 139.626 155.229C139.961 155.458 140.367 155.584 140.787 155.587C141.128 155.596 141.464 155.511 141.751 155.343C142.023 155.177 142.246 154.953 142.403 154.692C142.575 154.406 142.698 154.098 142.769 153.779C142.846 153.444 142.885 153.103 142.884 152.762Z" fill="#2D2D2D"/>
<path d="M152.442 152.073C152.442 152.298 152.384 152.458 152.266 152.554C152.155 152.647 152.012 152.698 151.864 152.697H146.533C146.528 153.091 146.573 153.484 146.669 153.868C146.748 154.194 146.902 154.5 147.12 154.762C147.34 155.017 147.624 155.214 147.945 155.334C148.34 155.477 148.761 155.545 149.184 155.534C149.529 155.539 149.874 155.509 150.214 155.446C150.479 155.394 150.74 155.326 150.996 155.242C151.216 155.167 151.397 155.099 151.538 155.038C151.638 154.989 151.747 154.959 151.86 154.95C151.899 154.949 151.938 154.96 151.972 154.98C152.006 155.001 152.033 155.032 152.049 155.068C152.07 155.121 152.084 155.176 152.09 155.233C152.1 155.321 152.104 155.409 152.103 155.498C152.104 155.563 152.101 155.628 152.094 155.693C152.09 155.743 152.082 155.792 152.071 155.84C152.064 155.881 152.048 155.921 152.026 155.958C152.005 155.994 151.978 156.027 151.947 156.057C151.856 156.12 151.758 156.173 151.654 156.213C151.451 156.3 151.24 156.371 151.025 156.426C150.729 156.503 150.43 156.565 150.128 156.613C149.77 156.669 149.408 156.697 149.045 156.696C148.45 156.707 147.857 156.615 147.295 156.426C146.815 156.26 146.382 155.988 146.032 155.63C145.674 155.25 145.409 154.797 145.258 154.305C145.074 153.702 144.987 153.076 144.998 152.448C144.99 151.835 145.083 151.224 145.272 150.639C145.432 150.138 145.697 149.675 146.05 149.277C146.387 148.905 146.807 148.611 147.278 148.417C147.787 148.213 148.335 148.111 148.888 148.119C149.522 148.119 150.064 148.217 150.512 148.414C150.936 148.595 151.312 148.867 151.611 149.209C151.904 149.553 152.12 149.952 152.244 150.381C152.382 150.848 152.45 151.331 152.447 151.817L152.442 152.073ZM150.95 151.646C150.967 150.895 150.793 150.306 150.429 149.879C150.065 149.451 149.523 149.237 148.804 149.237C148.47 149.23 148.139 149.298 147.837 149.436C147.568 149.563 147.33 149.744 147.139 149.966C146.947 150.195 146.8 150.455 146.705 150.734C146.602 151.03 146.544 151.338 146.533 151.649L150.95 151.646Z" fill="#2D2D2D"/>
<path d="M161.04 156.322C161.045 156.383 161.019 156.441 160.973 156.479C160.916 156.518 160.852 156.545 160.785 156.557C160.67 156.577 160.554 156.586 160.437 156.583C160.319 156.585 160.2 156.577 160.083 156.557C160.014 156.547 159.948 156.521 159.891 156.479C159.849 156.438 159.828 156.381 159.832 156.322V155.542C159.513 155.894 159.132 156.182 158.71 156.392C158.303 156.594 157.855 156.698 157.402 156.696C157.03 156.701 156.66 156.646 156.305 156.535C155.998 156.439 155.714 156.281 155.469 156.071C155.237 155.866 155.053 155.611 154.931 155.325C154.799 155.007 154.734 154.664 154.74 154.319C154.73 153.92 154.821 153.524 155.005 153.171C155.186 152.841 155.447 152.563 155.763 152.364C156.138 152.133 156.549 151.97 156.979 151.882C157.509 151.77 158.05 151.717 158.591 151.723H159.649V151.116C159.652 150.847 159.621 150.58 159.555 150.32C159.501 150.106 159.397 149.908 159.252 149.743C159.103 149.584 158.916 149.465 158.71 149.397C158.446 149.312 158.169 149.272 157.892 149.279C157.576 149.275 157.261 149.318 156.958 149.405C156.709 149.478 156.467 149.571 156.233 149.682C156.025 149.784 155.851 149.877 155.712 149.961C155.619 150.027 155.513 150.07 155.401 150.086C155.358 150.087 155.316 150.074 155.281 150.051C155.244 150.024 155.214 149.988 155.194 149.947C155.166 149.892 155.147 149.832 155.139 149.771C155.112 149.578 155.116 149.382 155.151 149.19C155.176 149.098 155.227 149.015 155.296 148.952C155.417 148.846 155.551 148.757 155.693 148.687C155.902 148.576 156.119 148.484 156.342 148.409C156.604 148.321 156.871 148.252 157.143 148.201C157.432 148.146 157.726 148.119 158.021 148.119C158.497 148.109 158.972 148.173 159.429 148.309C159.779 148.417 160.099 148.609 160.36 148.87C160.605 149.127 160.784 149.441 160.881 149.785C160.996 150.2 161.05 150.629 161.043 151.06L161.04 156.322ZM159.642 152.758H158.44C158.102 152.753 157.764 152.787 157.434 152.858C157.182 152.91 156.942 153.01 156.726 153.152C156.55 153.269 156.407 153.43 156.312 153.62C156.221 153.817 156.175 154.032 156.18 154.25C156.18 154.654 156.307 154.978 156.56 155.222C156.813 155.465 157.167 155.585 157.621 155.581C157.983 155.583 158.339 155.484 158.649 155.295C159.021 155.055 159.356 154.76 159.642 154.419V152.758Z" fill="#2D2D2D"/>
<path d="M169.06 156.424C169.061 156.466 169.049 156.508 169.027 156.542C168.999 156.58 168.962 156.608 168.921 156.626C168.856 156.653 168.787 156.671 168.718 156.678C168.61 156.691 168.501 156.697 168.392 156.696C168.282 156.698 168.171 156.692 168.061 156.678C167.992 156.671 167.923 156.654 167.858 156.626C167.817 156.608 167.78 156.58 167.752 156.542C167.73 156.508 167.718 156.466 167.72 156.424V151.792C167.728 151.426 167.696 151.061 167.622 150.703C167.567 150.448 167.47 150.206 167.337 149.987C167.216 149.791 167.05 149.634 166.854 149.531C166.639 149.421 166.404 149.367 166.167 149.372C165.802 149.383 165.449 149.518 165.16 149.759C164.761 150.082 164.405 150.464 164.103 150.892V156.421C164.104 156.463 164.093 156.504 164.071 156.539C164.042 156.576 164.006 156.604 163.965 156.622C163.899 156.65 163.831 156.668 163.761 156.675C163.651 156.688 163.54 156.694 163.43 156.693C163.321 156.694 163.212 156.688 163.104 156.675C163.033 156.667 162.964 156.65 162.897 156.622C162.855 156.607 162.818 156.578 162.792 156.539C162.772 156.503 162.762 156.462 162.763 156.421V148.514C162.762 148.473 162.77 148.433 162.787 148.396C162.811 148.356 162.845 148.325 162.886 148.307C162.944 148.277 163.007 148.259 163.072 148.253C163.148 148.245 163.248 148.24 163.373 148.24C163.498 148.24 163.591 148.245 163.669 148.253C163.733 148.258 163.795 148.276 163.852 148.307C163.89 148.327 163.922 148.358 163.946 148.396C163.965 148.432 163.975 148.473 163.974 148.514V149.561C164.386 149.063 164.797 148.698 165.206 148.466C165.588 148.242 166.014 148.123 166.448 148.12C166.872 148.106 167.294 148.198 167.68 148.388C167.999 148.553 168.276 148.799 168.488 149.104C168.701 149.418 168.852 149.775 168.932 150.155C169.028 150.629 169.074 151.114 169.066 151.6L169.06 156.424Z" fill="#2D2D2D"/>
<path d="M185.114 152.602C185.124 153.192 185.021 153.779 184.809 154.335C184.623 154.819 184.326 155.259 183.941 155.625C183.552 155.984 183.082 156.256 182.566 156.423C181.973 156.613 181.349 156.705 180.723 156.696C180.138 156.702 179.557 156.616 179.004 156.44C178.507 156.28 178.053 156.023 177.673 155.685C177.29 155.334 176.998 154.908 176.818 154.437C176.608 153.882 176.507 153.296 176.519 152.707V146.094C176.518 146.053 176.53 146.013 176.554 145.979C176.585 145.941 176.628 145.914 176.678 145.901C176.752 145.878 176.829 145.861 176.907 145.851C177.029 145.836 177.152 145.829 177.276 145.831C177.396 145.83 177.516 145.836 177.635 145.851C177.714 145.86 177.793 145.877 177.868 145.901C177.916 145.914 177.957 145.942 177.987 145.979C178.011 146.013 178.024 146.053 178.023 146.094V152.536C178.014 152.974 178.08 153.41 178.217 153.828C178.329 154.171 178.52 154.486 178.776 154.752C179.021 154.996 179.323 155.185 179.658 155.303C180.029 155.431 180.422 155.494 180.818 155.488C181.218 155.494 181.617 155.433 181.994 155.308C182.327 155.193 182.626 155.007 182.867 154.764C183.116 154.505 183.302 154.198 183.413 153.866C183.547 153.461 183.611 153.038 183.603 152.613V146.094C183.602 146.053 183.615 146.013 183.639 145.979C183.67 145.941 183.713 145.914 183.762 145.901C183.838 145.877 183.916 145.861 183.995 145.851C184.117 145.836 184.239 145.829 184.361 145.831C184.481 145.829 184.601 145.836 184.72 145.851C184.798 145.861 184.875 145.877 184.949 145.901C184.998 145.915 185.041 145.942 185.073 145.979C185.099 146.012 185.113 146.052 185.113 146.094L185.114 152.602Z" fill="#2D2D2D"/>
<path d="M194.278 156.424C194.279 156.466 194.267 156.508 194.244 156.542C194.216 156.58 194.18 156.608 194.138 156.626C194.073 156.654 194.005 156.671 193.935 156.678C193.827 156.691 193.719 156.697 193.61 156.696C193.499 156.698 193.389 156.692 193.279 156.678C193.209 156.671 193.141 156.654 193.076 156.626C193.034 156.608 192.998 156.58 192.97 156.542C192.947 156.508 192.936 156.466 192.937 156.424V151.791C192.946 151.425 192.913 151.06 192.84 150.702C192.784 150.447 192.688 150.205 192.555 149.986C192.434 149.79 192.267 149.633 192.072 149.529C191.857 149.42 191.622 149.366 191.384 149.371C191.019 149.382 190.666 149.517 190.376 149.758C189.978 150.081 189.622 150.463 189.319 150.891V156.421C189.321 156.463 189.309 156.504 189.287 156.539C189.259 156.576 189.222 156.604 189.181 156.622C189.116 156.65 189.047 156.668 188.977 156.675C188.867 156.688 188.757 156.694 188.646 156.693C188.537 156.694 188.428 156.688 188.32 156.675C188.249 156.667 188.18 156.65 188.113 156.622C188.071 156.606 188.035 156.577 188.008 156.539C187.988 156.503 187.979 156.462 187.98 156.421V148.513C187.979 148.472 187.987 148.432 188.003 148.395C188.027 148.355 188.061 148.324 188.102 148.305C188.161 148.276 188.224 148.258 188.288 148.252C188.364 148.244 188.465 148.239 188.59 148.239C188.715 148.239 188.807 148.244 188.885 148.252C188.949 148.256 189.011 148.275 189.068 148.305C189.106 148.326 189.138 148.357 189.162 148.395C189.182 148.431 189.191 148.472 189.19 148.513V149.56C189.603 149.061 190.013 148.696 190.423 148.465C190.804 148.241 191.231 148.122 191.665 148.118C192.152 148.118 192.564 148.208 192.897 148.387C193.215 148.552 193.493 148.798 193.705 149.103C193.918 149.417 194.069 149.774 194.149 150.154C194.245 150.628 194.29 151.114 194.283 151.6L194.278 156.424Z" fill="#2D2D2D"/>
<path d="M198.296 146.628C198.296 146.944 198.234 147.158 198.111 147.272C197.987 147.387 197.76 147.444 197.425 147.444C197.09 147.444 196.878 147.387 196.757 147.277C196.636 147.168 196.576 146.956 196.576 146.646C196.576 146.336 196.638 146.116 196.762 146.003C196.885 145.889 197.112 145.831 197.447 145.831C197.782 145.831 197.994 145.887 198.116 145.997C198.238 146.106 198.296 146.318 198.296 146.628ZM198.136 156.444C198.138 156.483 198.126 156.521 198.103 156.554C198.074 156.588 198.036 156.614 197.993 156.631C197.926 156.657 197.855 156.673 197.783 156.68C197.669 156.692 197.554 156.697 197.44 156.696C197.328 156.697 197.215 156.692 197.103 156.68C197.03 156.673 196.958 156.656 196.889 156.631C196.846 156.616 196.808 156.589 196.78 156.554C196.76 156.52 196.75 156.482 196.751 156.444V149.106C196.751 149.069 196.761 149.032 196.78 149C196.806 148.962 196.845 148.932 196.889 148.917C196.958 148.892 197.03 148.876 197.103 148.869C197.215 148.856 197.328 148.851 197.44 148.852C197.554 148.851 197.669 148.856 197.783 148.869C197.855 148.875 197.926 148.891 197.993 148.917C198.037 148.935 198.075 148.963 198.103 149C198.125 149.031 198.136 149.068 198.136 149.106V156.444Z" fill="#2D2D2D"/>
<path d="M207.465 152.322C207.471 152.917 207.384 153.51 207.206 154.079C207.05 154.587 206.787 155.058 206.435 155.463C206.084 155.856 205.645 156.167 205.152 156.37C204.585 156.597 203.977 156.707 203.365 156.696C202.776 156.707 202.191 156.61 201.639 156.408C201.168 156.231 200.748 155.945 200.414 155.576C200.075 155.19 199.826 154.738 199.682 154.25C199.515 153.675 199.434 153.08 199.443 152.482C199.437 151.888 199.522 151.296 199.696 150.726C199.85 150.218 200.111 149.747 200.462 149.343C200.812 148.949 201.25 148.64 201.743 148.44C202.311 148.215 202.921 148.106 203.534 148.119C204.122 148.107 204.708 148.204 205.259 148.405C205.731 148.583 206.151 148.869 206.485 149.238C206.824 149.624 207.075 150.076 207.221 150.564C207.391 151.135 207.473 151.728 207.465 152.322ZM205.941 152.418C205.943 152.015 205.902 151.614 205.819 151.22C205.748 150.87 205.613 150.535 205.419 150.232C205.232 149.947 204.971 149.715 204.663 149.559C203.929 149.237 203.089 149.229 202.348 149.538C202.038 149.684 201.77 149.903 201.569 150.175C201.356 150.469 201.202 150.798 201.114 151.147C201.012 151.55 200.961 151.964 200.966 152.38C200.963 152.784 201.004 153.188 201.087 153.585C201.158 153.935 201.295 154.269 201.491 154.57C201.682 154.852 201.944 155.082 202.251 155.238C202.621 155.414 203.028 155.499 203.439 155.486C203.827 155.495 204.211 155.418 204.564 155.26C204.874 155.115 205.143 154.897 205.346 154.626C205.56 154.334 205.712 154.004 205.796 153.654C205.895 153.249 205.944 152.834 205.941 152.418Z" fill="#2D2D2D"/>
<path d="M216.056 156.424C216.057 156.466 216.046 156.508 216.023 156.542C215.995 156.579 215.959 156.608 215.917 156.626C215.852 156.654 215.783 156.671 215.714 156.678C215.606 156.691 215.497 156.697 215.389 156.696C215.278 156.697 215.168 156.692 215.058 156.678C214.988 156.671 214.92 156.653 214.855 156.626C214.813 156.608 214.777 156.58 214.749 156.542C214.726 156.508 214.715 156.466 214.716 156.424V151.791C214.725 151.425 214.692 151.06 214.619 150.702C214.563 150.448 214.467 150.205 214.334 149.986C214.213 149.791 214.046 149.633 213.851 149.529C213.636 149.42 213.401 149.365 213.163 149.371C212.798 149.382 212.445 149.517 212.155 149.758C211.756 150.083 211.4 150.465 211.097 150.895V156.424C211.098 156.466 211.087 156.508 211.064 156.542C211.036 156.58 211 156.608 210.958 156.626C210.893 156.653 210.825 156.671 210.755 156.678C210.645 156.692 210.535 156.697 210.424 156.696C210.316 156.697 210.207 156.691 210.099 156.678C210.028 156.671 209.958 156.653 209.892 156.626C209.85 156.61 209.813 156.581 209.786 156.542C209.767 156.507 209.757 156.466 209.758 156.424V148.513C209.757 148.472 209.765 148.431 209.782 148.395C209.805 148.355 209.84 148.324 209.88 148.305C209.939 148.276 210.002 148.258 210.066 148.252C210.142 148.244 210.243 148.239 210.368 148.239C210.493 148.239 210.586 148.244 210.664 148.252C210.728 148.256 210.79 148.275 210.847 148.305C210.884 148.326 210.917 148.357 210.94 148.395C210.96 148.43 210.97 148.472 210.969 148.513V149.56C211.38 149.061 211.791 148.696 212.201 148.465C212.582 148.241 213.009 148.122 213.443 148.118C213.931 148.118 214.341 148.208 214.675 148.387C214.994 148.552 215.271 148.798 215.483 149.103C215.696 149.417 215.847 149.774 215.927 150.154C216.024 150.628 216.069 151.114 216.061 151.6L216.056 156.424Z" fill="#2D2D2D"/>
<path d="M111.183 136.192C111.183 136.28 111.183 136.359 111.174 136.422C111.17 136.48 111.16 136.538 111.145 136.594C111.132 136.64 111.113 136.684 111.089 136.725C111.055 136.776 111.015 136.823 110.969 136.865C110.858 136.958 110.738 137.042 110.611 137.115C110.395 137.244 110.167 137.354 109.931 137.443C109.63 137.559 109.318 137.649 109.001 137.714C108.623 137.79 108.238 137.827 107.852 137.824C107.187 137.833 106.526 137.716 105.908 137.48C105.339 137.257 104.832 136.909 104.428 136.464C104 135.978 103.68 135.413 103.489 134.804C103.042 133.291 103.05 131.687 103.514 130.178C103.724 129.538 104.064 128.944 104.513 128.429C104.931 127.958 105.455 127.584 106.045 127.335C106.965 126.967 107.976 126.866 108.955 127.044C109.239 127.097 109.518 127.17 109.792 127.262C110.029 127.341 110.258 127.442 110.475 127.565C110.624 127.644 110.763 127.739 110.889 127.848C110.946 127.897 110.996 127.953 111.039 128.015C111.063 128.057 111.082 128.103 111.094 128.15C111.11 128.21 111.121 128.272 111.128 128.333C111.138 128.418 111.142 128.503 111.141 128.588C111.142 128.681 111.137 128.774 111.124 128.866C111.115 128.932 111.098 128.998 111.073 129.06C111.055 129.104 111.027 129.143 110.991 129.174C110.958 129.199 110.917 129.212 110.875 129.211C110.795 129.211 110.684 129.157 110.54 129.051C110.363 128.923 110.178 128.806 109.987 128.699C109.725 128.555 109.448 128.437 109.162 128.346C108.785 128.232 108.392 128.178 107.998 128.187C107.534 128.181 107.074 128.277 106.655 128.47C106.244 128.664 105.889 128.95 105.619 129.304C105.315 129.707 105.089 130.16 104.953 130.64C104.642 131.818 104.64 133.051 104.945 134.23C105.073 134.698 105.294 135.138 105.598 135.525C105.873 135.866 106.232 136.136 106.642 136.312C107.084 136.495 107.561 136.586 108.042 136.578C108.433 136.585 108.823 136.532 109.197 136.422C109.489 136.333 109.771 136.217 110.038 136.074C110.27 135.945 110.46 135.829 110.61 135.726C110.759 135.622 110.876 135.57 110.958 135.57C110.994 135.569 111.03 135.577 111.061 135.595C111.095 135.618 111.119 135.651 111.13 135.688C111.15 135.751 111.163 135.816 111.168 135.881C111.178 135.965 111.183 136.069 111.183 136.192Z" fill="#2D2D2D"/>
<path d="M121.499 133.451C121.505 134.046 121.418 134.638 121.24 135.207C121.083 135.715 120.821 136.186 120.469 136.591C120.118 136.985 119.679 137.295 119.186 137.498C118.619 137.725 118.011 137.835 117.399 137.823C116.81 137.835 116.225 137.738 115.674 137.537C115.202 137.359 114.782 137.074 114.448 136.704C114.109 136.318 113.86 135.866 113.717 135.378C113.549 134.804 113.468 134.208 113.476 133.611C113.47 133.016 113.556 132.424 113.73 131.854C113.884 131.346 114.145 130.875 114.496 130.47C114.846 130.077 115.284 129.769 115.776 129.568C116.344 129.343 116.954 129.234 117.567 129.247C118.155 129.235 118.741 129.332 119.292 129.533C119.763 129.712 120.183 129.997 120.517 130.367C120.856 130.753 121.107 131.205 121.253 131.693C121.423 132.264 121.506 132.856 121.499 133.451ZM119.975 133.546C119.977 133.144 119.936 132.743 119.853 132.349C119.782 131.998 119.647 131.663 119.453 131.359C119.266 131.075 119.005 130.843 118.697 130.688C117.963 130.364 117.123 130.356 116.382 130.666C116.072 130.811 115.804 131.031 115.604 131.303C115.39 131.598 115.236 131.929 115.15 132.28C115.047 132.682 114.997 133.096 115.001 133.511C114.999 133.916 115.039 134.32 115.122 134.717C115.193 135.067 115.33 135.401 115.527 135.702C115.718 135.984 115.979 136.213 116.287 136.37C116.656 136.546 117.064 136.631 117.474 136.618C117.862 136.627 118.246 136.55 118.598 136.392C118.909 136.247 119.178 136.029 119.381 135.759C119.596 135.466 119.75 135.136 119.835 134.786C119.933 134.38 119.98 133.964 119.975 133.546Z" fill="#2D2D2D"/>
<path d="M126.657 133.533C126.657 133.642 126.639 133.717 126.605 133.759C126.574 133.798 126.515 133.822 126.452 133.821H124.003C123.937 133.823 123.875 133.798 123.845 133.756C123.809 133.713 123.792 133.639 123.792 133.533C123.792 133.428 123.809 133.353 123.845 133.312C123.877 133.271 123.938 133.247 124.003 133.249H126.452C126.481 133.249 126.51 133.253 126.537 133.262C126.565 133.272 126.588 133.289 126.601 133.31C126.621 133.338 126.635 133.368 126.643 133.399C126.653 133.444 126.658 133.488 126.657 133.533Z" fill="#2D2D2D"/>
<path d="M132.388 126.712C132.389 126.799 132.384 126.887 132.371 126.973C132.362 127.027 132.35 127.08 132.333 127.131C132.324 127.164 132.305 127.192 132.279 127.212C132.252 127.228 132.223 127.235 132.192 127.234C132.141 127.231 132.091 127.218 132.045 127.196C131.985 127.17 131.913 127.142 131.829 127.109C131.73 127.073 131.63 127.044 131.528 127.022C131.396 126.994 131.261 126.981 131.126 126.983C130.943 126.977 130.761 127.012 130.593 127.085C130.446 127.154 130.322 127.266 130.237 127.406C130.137 127.579 130.072 127.771 130.043 127.97C130 128.248 129.979 128.53 129.982 128.811V129.649H131.683C131.723 129.647 131.763 129.658 131.798 129.678C131.834 129.704 131.864 129.74 131.884 129.781C131.912 129.839 131.932 129.901 131.942 129.965C131.958 130.055 131.965 130.146 131.964 130.237C131.974 130.389 131.948 130.542 131.887 130.682C131.852 130.763 131.773 130.817 131.685 130.818H129.982V137.56C129.984 137.601 129.972 137.641 129.949 137.675C129.918 137.712 129.879 137.74 129.834 137.756C129.765 137.783 129.692 137.801 129.618 137.808C129.393 137.83 129.167 137.83 128.942 137.808C128.868 137.8 128.795 137.783 128.725 137.756C128.681 137.74 128.641 137.712 128.612 137.675C128.588 137.641 128.576 137.601 128.578 137.56V130.821H127.503C127.414 130.822 127.333 130.768 127.3 130.684C127.246 130.543 127.223 130.391 127.232 130.24C127.231 130.149 127.237 130.057 127.25 129.967C127.257 129.904 127.275 129.842 127.3 129.784C127.318 129.741 127.348 129.705 127.387 129.681C127.423 129.66 127.463 129.65 127.505 129.651H128.58V128.857C128.572 128.392 128.621 127.928 128.727 127.476C128.807 127.132 128.962 126.81 129.18 126.533C129.384 126.287 129.648 126.1 129.946 125.99C130.295 125.866 130.663 125.807 131.033 125.815C131.226 125.815 131.419 125.834 131.609 125.871C131.756 125.897 131.9 125.937 132.04 125.99C132.114 126.017 132.183 126.056 132.243 126.106C132.281 126.144 132.31 126.189 132.329 126.238C132.354 126.301 132.37 126.368 132.376 126.435C132.385 126.527 132.389 126.62 132.388 126.712Z" fill="#2D2D2D"/>
<path d="M139.836 137.437C139.837 137.479 139.827 137.52 139.808 137.555C139.782 137.593 139.747 137.622 139.706 137.639C139.645 137.666 139.581 137.684 139.515 137.693C139.42 137.705 139.323 137.71 139.227 137.71C139.126 137.711 139.024 137.705 138.923 137.693C138.858 137.685 138.795 137.667 138.735 137.639C138.697 137.622 138.664 137.593 138.642 137.555C138.625 137.519 138.617 137.478 138.618 137.437V136.39C138.201 136.889 137.79 137.252 137.383 137.481C137.004 137.702 136.58 137.82 136.149 137.824C135.662 137.824 135.252 137.736 134.919 137.561C134.6 137.397 134.323 137.151 134.112 136.844C133.9 136.528 133.75 136.169 133.669 135.789C133.572 135.308 133.527 134.816 133.535 134.323V129.519C133.534 129.478 133.544 129.437 133.564 129.401C133.591 129.36 133.63 129.329 133.674 129.311C133.741 129.282 133.812 129.264 133.884 129.259C133.971 129.25 134.079 129.246 134.209 129.246C134.339 129.246 134.448 129.246 134.534 129.259C134.605 129.264 134.675 129.281 134.741 129.311C134.784 129.331 134.822 129.362 134.851 129.401C134.873 129.436 134.884 129.477 134.883 129.519V134.13C134.875 134.503 134.906 134.876 134.976 135.241C135.028 135.498 135.125 135.741 135.261 135.958C135.385 136.152 135.551 136.309 135.744 136.415C135.956 136.528 136.19 136.584 136.426 136.578C136.789 136.568 137.14 136.432 137.428 136.191C137.826 135.865 138.182 135.483 138.489 135.057V129.519C138.487 129.478 138.497 129.437 138.517 129.401C138.544 129.36 138.582 129.329 138.626 129.311C138.692 129.282 138.762 129.264 138.834 129.259C138.916 129.25 139.026 129.246 139.164 129.246C139.303 129.246 139.403 129.246 139.489 129.259C139.559 129.263 139.628 129.281 139.692 129.311C139.734 129.333 139.771 129.363 139.801 129.401C139.826 129.434 139.84 129.476 139.839 129.519L139.836 137.437Z" fill="#2D2D2D"/>
<path d="M149 137.552C149.002 137.594 148.99 137.636 148.968 137.67C148.94 137.707 148.903 137.736 148.862 137.753C148.797 137.782 148.728 137.8 148.658 137.807C148.55 137.819 148.442 137.825 148.333 137.824C148.223 137.825 148.112 137.819 148.002 137.807C147.932 137.8 147.864 137.782 147.799 137.753C147.758 137.736 147.721 137.708 147.693 137.67C147.671 137.636 147.659 137.594 147.661 137.552V132.92C147.669 132.554 147.636 132.188 147.563 131.83C147.507 131.575 147.411 131.333 147.279 131.114C147.157 130.919 146.99 130.761 146.795 130.657C146.58 130.548 146.345 130.494 146.108 130.499C145.743 130.51 145.39 130.645 145.101 130.886C144.702 131.21 144.346 131.591 144.043 132.02V137.548C144.044 137.591 144.033 137.632 144.011 137.667C143.983 137.704 143.946 137.733 143.905 137.75C143.84 137.779 143.771 137.797 143.702 137.804C143.592 137.816 143.481 137.822 143.37 137.821C143.262 137.821 143.153 137.816 143.046 137.804C142.974 137.796 142.904 137.778 142.838 137.75C142.796 137.734 142.759 137.705 142.733 137.667C142.713 137.631 142.703 137.59 142.704 137.548V129.642C142.703 129.601 142.711 129.56 142.728 129.524C142.752 129.484 142.786 129.453 142.826 129.434C142.885 129.405 142.948 129.387 143.012 129.381C143.212 129.364 143.411 129.364 143.611 129.381C143.674 129.386 143.736 129.404 143.793 129.434C143.831 129.455 143.863 129.486 143.887 129.524C143.907 129.559 143.916 129.6 143.915 129.642V130.688C144.328 130.19 144.738 129.825 145.147 129.593C145.528 129.369 145.955 129.25 146.389 129.246C146.878 129.246 147.288 129.336 147.621 129.515C147.94 129.68 148.217 129.926 148.429 130.231C148.642 130.545 148.793 130.903 148.873 131.282C148.97 131.757 149.015 132.242 149.008 132.727L149 137.552Z" fill="#2D2D2D"/>
<path d="M158.178 137.449C158.179 137.491 158.168 137.532 158.147 137.569C158.121 137.606 158.083 137.634 158.039 137.649C157.973 137.673 157.906 137.688 157.836 137.696C157.735 137.708 157.633 137.714 157.53 137.713C157.425 137.714 157.32 137.708 157.216 137.696C157.145 137.688 157.076 137.672 157.009 137.649C156.962 137.634 156.922 137.606 156.892 137.569C156.867 137.533 156.855 137.491 156.856 137.449V136.434C156.473 136.839 156.025 137.184 155.529 137.457C155.069 137.702 154.55 137.828 154.023 137.824C153.429 137.824 152.923 137.714 152.504 137.495C152.092 137.283 151.741 136.979 151.482 136.609C151.209 136.208 151.016 135.763 150.912 135.296C150.788 134.774 150.727 134.24 150.728 133.705C150.721 133.103 150.796 132.503 150.953 131.919C151.082 131.43 151.308 130.968 151.619 130.558C151.903 130.189 152.278 129.891 152.711 129.69C153.182 129.481 153.697 129.377 154.217 129.387C154.67 129.382 155.116 129.484 155.517 129.682C155.952 129.91 156.345 130.204 156.682 130.551V126.089C156.682 126.049 156.693 126.01 156.713 125.975C156.74 125.932 156.784 125.901 156.835 125.888C156.909 125.864 156.986 125.847 157.064 125.837C157.182 125.82 157.301 125.813 157.419 125.815C157.542 125.813 157.665 125.82 157.786 125.837C157.862 125.846 157.938 125.863 158.01 125.888C158.06 125.904 158.102 125.935 158.132 125.975C158.158 126.008 158.172 126.048 158.173 126.089L158.178 137.449ZM156.686 132.05C156.352 131.641 155.96 131.279 155.521 130.973C155.18 130.737 154.77 130.607 154.347 130.602C154.006 130.592 153.67 130.681 153.384 130.857C153.118 131.032 152.899 131.263 152.743 131.532C152.572 131.827 152.451 132.146 152.384 132.478C152.309 132.831 152.271 133.191 152.271 133.552C152.27 133.932 152.301 134.312 152.363 134.687C152.417 135.03 152.528 135.362 152.692 135.672C152.836 135.947 153.049 136.184 153.312 136.363C153.599 136.544 153.939 136.635 154.283 136.623C154.476 136.624 154.669 136.599 154.854 136.548C155.053 136.489 155.242 136.402 155.416 136.292C155.631 136.154 155.833 135.999 156.019 135.827C156.257 135.606 156.479 135.371 156.685 135.123L156.686 132.05Z" fill="#2D2D2D"/>
<path d="M167.921 133.195C167.921 133.42 167.862 133.58 167.745 133.677C167.633 133.77 167.49 133.821 167.342 133.819H162.008C162.004 134.213 162.049 134.607 162.144 134.99C162.224 135.317 162.378 135.623 162.595 135.885C162.816 136.14 163.1 136.337 163.42 136.458C163.816 136.6 164.237 136.668 164.659 136.657C165.005 136.662 165.351 136.633 165.691 136.569C165.956 136.518 166.217 136.45 166.473 136.366C166.693 136.291 166.875 136.223 167.016 136.162C167.116 136.113 167.225 136.083 167.337 136.073C167.377 136.072 167.416 136.083 167.45 136.103C167.484 136.125 167.51 136.156 167.527 136.192C167.548 136.246 167.562 136.303 167.568 136.36C167.578 136.449 167.582 136.537 167.582 136.626C167.582 136.691 167.579 136.756 167.572 136.821C167.567 136.871 167.559 136.92 167.55 136.969C167.541 137.01 167.526 137.05 167.505 137.086C167.482 137.122 167.455 137.155 167.424 137.185C167.333 137.249 167.235 137.301 167.131 137.342C166.927 137.428 166.717 137.499 166.501 137.554C166.206 137.631 165.907 137.693 165.606 137.74C165.247 137.797 164.885 137.825 164.522 137.823C163.926 137.834 163.333 137.743 162.77 137.554C162.29 137.388 161.857 137.116 161.506 136.758C161.148 136.378 160.883 135.925 160.731 135.432C160.548 134.83 160.46 134.204 160.472 133.576C160.463 132.963 160.554 132.352 160.741 131.767C160.901 131.266 161.166 130.803 161.519 130.404C161.856 130.033 162.276 129.74 162.747 129.546C163.258 129.341 163.806 129.239 164.359 129.246C164.995 129.246 165.537 129.345 165.984 129.542C166.409 129.723 166.785 129.995 167.085 130.337C167.378 130.681 167.594 131.08 167.719 131.508C167.856 131.976 167.924 132.459 167.921 132.945V133.195ZM166.427 132.77C166.445 132.018 166.271 131.429 165.906 131.002C165.541 130.575 164.999 130.36 164.281 130.358C163.946 130.351 163.615 130.419 163.312 130.557C163.043 130.684 162.806 130.865 162.615 131.088C162.423 131.316 162.276 131.577 162.18 131.857C162.077 132.152 162.019 132.46 162.008 132.772L166.427 132.77Z" fill="#2D2D2D"/>
<path d="M176.518 137.449C176.519 137.491 176.508 137.532 176.486 137.569C176.46 137.606 176.422 137.634 176.378 137.649C176.313 137.672 176.245 137.688 176.176 137.696C176.074 137.708 175.972 137.714 175.87 137.713C175.764 137.714 175.659 137.708 175.555 137.696C175.484 137.688 175.415 137.672 175.348 137.649C175.302 137.634 175.261 137.606 175.231 137.569C175.207 137.533 175.195 137.491 175.195 137.449V136.434C174.812 136.839 174.365 137.184 173.869 137.457C173.409 137.702 172.89 137.828 172.362 137.824C171.769 137.824 171.262 137.714 170.843 137.495C170.431 137.284 170.08 136.979 169.822 136.609C169.548 136.208 169.355 135.763 169.251 135.296C169.128 134.774 169.066 134.24 169.068 133.705C169.06 133.103 169.136 132.503 169.293 131.919C169.422 131.43 169.648 130.968 169.958 130.558C170.243 130.189 170.618 129.891 171.051 129.69C171.522 129.481 172.038 129.377 172.558 129.387C173.01 129.382 173.456 129.484 173.857 129.682C174.292 129.91 174.686 130.203 175.022 130.551V126.089C175.022 126.049 175.033 126.01 175.053 125.975C175.081 125.932 175.124 125.901 175.174 125.888C175.249 125.864 175.326 125.847 175.404 125.837C175.522 125.82 175.64 125.813 175.759 125.815C175.882 125.813 176.004 125.821 176.125 125.837C176.202 125.846 176.277 125.863 176.35 125.888C176.399 125.904 176.441 125.935 176.471 125.975C176.497 126.008 176.511 126.048 176.512 126.089L176.518 137.449ZM175.025 132.05C174.691 131.641 174.299 131.279 173.86 130.973C173.519 130.737 173.109 130.607 172.687 130.602C172.346 130.592 172.01 130.681 171.724 130.857C171.458 131.032 171.238 131.263 171.083 131.532C170.911 131.827 170.79 132.146 170.722 132.478C170.648 132.831 170.611 133.191 170.611 133.552C170.609 133.932 170.64 134.312 170.702 134.687C170.756 135.03 170.867 135.362 171.031 135.672C171.176 135.947 171.389 136.184 171.651 136.363C171.938 136.544 172.278 136.635 172.623 136.623C172.816 136.624 173.008 136.599 173.194 136.548C173.393 136.488 173.582 136.402 173.755 136.292C173.971 136.154 174.172 135.999 174.358 135.827C174.596 135.606 174.819 135.371 175.024 135.123L175.025 132.05Z" fill="#2D2D2D"/>
<path d="M189.699 133.521C189.706 134.124 189.63 134.726 189.47 135.311C189.338 135.799 189.109 136.259 188.795 136.666C188.509 137.032 188.134 137.327 187.702 137.527C187.237 137.731 186.729 137.833 186.217 137.824C185.976 137.826 185.736 137.801 185.501 137.751C185.277 137.701 185.061 137.622 184.859 137.517C184.635 137.401 184.424 137.264 184.229 137.109C183.995 136.923 183.772 136.725 183.563 136.514V137.45C183.564 137.492 183.551 137.533 183.527 137.569C183.497 137.607 183.456 137.635 183.409 137.65C183.344 137.672 183.276 137.688 183.207 137.696C183.104 137.708 183.001 137.714 182.897 137.713C182.795 137.714 182.692 137.708 182.591 137.696C182.52 137.688 182.451 137.672 182.384 137.65C182.339 137.636 182.3 137.607 182.275 137.569C182.257 137.532 182.248 137.491 182.249 137.45V126.089C182.248 126.047 182.259 126.006 182.281 125.97C182.308 125.929 182.349 125.899 182.397 125.883C182.471 125.856 182.548 125.839 182.627 125.832C182.746 125.82 182.866 125.814 182.987 125.815C183.109 125.814 183.232 125.819 183.354 125.832C183.431 125.839 183.507 125.856 183.579 125.883C183.626 125.901 183.667 125.931 183.696 125.97C183.721 126.005 183.733 126.047 183.732 126.089V130.671C183.948 130.459 184.181 130.263 184.43 130.086C184.637 129.937 184.858 129.808 185.091 129.699C185.297 129.603 185.514 129.53 185.738 129.481C185.963 129.436 186.192 129.413 186.422 129.414C187.011 129.414 187.513 129.524 187.929 129.745C188.339 129.96 188.688 130.265 188.947 130.634C189.22 131.032 189.414 131.475 189.518 131.939C189.641 132.458 189.701 132.989 189.699 133.521ZM188.16 133.682C188.162 133.3 188.131 132.92 188.069 132.543C188.014 132.202 187.902 131.872 187.738 131.565C187.591 131.292 187.377 131.058 187.113 130.88C186.827 130.7 186.488 130.609 186.144 130.62C185.951 130.62 185.759 130.646 185.573 130.697C185.371 130.754 185.178 130.841 185.003 130.952C184.788 131.087 184.587 131.241 184.401 131.411C184.161 131.632 183.937 131.868 183.732 132.118V135.171C184.072 135.578 184.468 135.94 184.909 136.247C185.248 136.483 185.656 136.612 186.076 136.617C186.417 136.626 186.752 136.537 187.037 136.361C187.305 136.187 187.525 135.956 187.679 135.686C187.852 135.391 187.976 135.073 188.046 134.742C188.122 134.393 188.16 134.038 188.16 133.682Z" fill="#2D2D2D"/>
<path d="M194.866 137.686L193.824 140.41C193.772 140.512 193.674 140.586 193.558 140.612C193.348 140.667 193.13 140.691 192.912 140.682C192.789 140.684 192.667 140.677 192.546 140.662C192.471 140.653 192.398 140.629 192.334 140.591C192.286 140.562 192.256 140.513 192.251 140.46C192.248 140.392 192.263 140.324 192.294 140.262L193.372 137.686C193.315 137.661 193.265 137.624 193.225 137.579C193.18 137.535 193.148 137.481 193.129 137.423L190.341 130.345C190.302 130.259 190.279 130.167 190.272 130.074C190.27 130.015 190.295 129.957 190.341 129.917C190.407 129.872 190.486 129.845 190.567 129.839C190.705 129.824 190.845 129.817 190.984 129.819C191.161 129.819 191.294 129.819 191.392 129.831C191.472 129.836 191.551 129.851 191.627 129.876C191.679 129.894 191.723 129.927 191.753 129.971C191.785 130.025 191.812 130.081 191.835 130.139L194.067 136.081H194.093L196.246 130.106C196.264 130.027 196.308 129.956 196.372 129.904C196.441 129.868 196.516 129.845 196.594 129.838C196.735 129.823 196.877 129.816 197.019 129.818C197.152 129.817 197.286 129.823 197.418 129.838C197.501 129.844 197.581 129.871 197.649 129.916C197.698 129.955 197.726 130.013 197.722 130.073C197.719 130.157 197.701 130.241 197.67 130.32L194.866 137.686Z" fill="#2D2D2D"/>
<path d="M207.465 136.91C207.468 137.041 207.456 137.172 207.429 137.301C207.414 137.379 207.376 137.451 207.321 137.51C207.26 137.565 207.188 137.608 207.111 137.637C207.007 137.68 206.9 137.713 206.79 137.735C206.67 137.76 206.543 137.781 206.409 137.798C206.276 137.815 206.141 137.823 206.006 137.824C205.648 137.831 205.292 137.778 204.954 137.667C204.677 137.571 204.431 137.407 204.239 137.192C204.04 136.958 203.9 136.682 203.831 136.386C203.74 136.009 203.697 135.623 203.703 135.236V130.777H202.599C202.508 130.774 202.426 130.722 202.388 130.641C202.326 130.502 202.299 130.35 202.31 130.199C202.308 130.109 202.316 130.018 202.332 129.929C202.343 129.866 202.362 129.805 202.388 129.746C202.406 129.704 202.437 129.668 202.478 129.644C202.517 129.624 202.56 129.614 202.605 129.615H203.7V127.8C203.7 127.761 203.711 127.723 203.732 127.69C203.759 127.65 203.799 127.62 203.845 127.603C203.916 127.573 203.991 127.555 204.068 127.548C204.185 127.535 204.302 127.529 204.419 127.53C204.539 127.529 204.658 127.535 204.777 127.548C204.853 127.554 204.927 127.573 204.996 127.603C205.041 127.622 205.08 127.652 205.11 127.69C205.132 127.722 205.145 127.761 205.145 127.8V129.615H207.17C207.213 129.614 207.255 129.624 207.293 129.644C207.332 129.67 207.363 129.705 207.382 129.746C207.412 129.804 207.431 129.865 207.439 129.929C207.452 130.018 207.458 130.109 207.457 130.199C207.468 130.351 207.441 130.502 207.378 130.641C207.341 130.722 207.259 130.774 207.168 130.777H205.142V135.035C205.142 135.562 205.222 135.959 205.383 136.227C205.544 136.496 205.83 136.63 206.248 136.63C206.368 136.631 206.488 136.618 206.605 136.592C206.71 136.566 206.803 136.54 206.885 136.512C206.968 136.483 207.037 136.456 207.095 136.431C207.145 136.408 207.199 136.394 207.253 136.392C207.282 136.393 207.311 136.4 207.337 136.413C207.366 136.432 207.388 136.461 207.398 136.494C207.416 136.547 207.429 136.601 207.437 136.656C207.454 136.74 207.463 136.825 207.465 136.91Z" fill="#2D2D2D"/>
<path d="M216.061 137.558C216.063 137.6 216.051 137.64 216.029 137.674C216.001 137.71 215.965 137.739 215.923 137.755C215.858 137.783 215.79 137.801 215.72 137.808C215.612 137.82 215.503 137.825 215.394 137.824C215.283 137.825 215.173 137.82 215.062 137.808C214.992 137.801 214.924 137.783 214.858 137.755C214.817 137.738 214.78 137.71 214.752 137.674C214.73 137.64 214.719 137.599 214.721 137.558V133.036C214.729 132.678 214.696 132.321 214.622 131.972C214.567 131.723 214.47 131.487 214.338 131.273C214.216 131.082 214.049 130.928 213.854 130.827C213.639 130.72 213.403 130.667 213.165 130.672C212.829 130.672 212.493 130.799 212.157 131.05C211.758 131.366 211.402 131.739 211.099 132.157V137.555C211.101 137.596 211.089 137.637 211.066 137.67C211.038 137.707 211.002 137.735 210.96 137.752C210.895 137.78 210.827 137.797 210.757 137.804C210.647 137.816 210.536 137.822 210.425 137.821C210.317 137.822 210.208 137.816 210.1 137.804C210.028 137.797 209.958 137.779 209.892 137.752C209.849 137.737 209.813 137.708 209.786 137.67C209.767 137.635 209.757 137.595 209.758 137.555V126.094C209.757 126.051 209.767 126.009 209.787 125.971C209.812 125.931 209.849 125.9 209.892 125.884C209.959 125.857 210.029 125.839 210.1 125.832C210.209 125.82 210.317 125.814 210.426 125.815C210.537 125.814 210.648 125.82 210.758 125.832C210.828 125.839 210.896 125.856 210.961 125.884C211.004 125.901 211.041 125.932 211.067 125.971C211.09 126.007 211.101 126.049 211.1 126.091V130.716C211.432 130.33 211.825 130.006 212.261 129.76C212.625 129.558 213.029 129.45 213.441 129.446C213.929 129.446 214.34 129.534 214.674 129.709C214.993 129.87 215.27 130.11 215.484 130.408C215.696 130.715 215.847 131.064 215.927 131.434C216.024 131.901 216.069 132.377 216.061 132.854V137.558Z" fill="#2D2D2D"/>
<path d="M225.232 133.195C225.232 133.42 225.173 133.58 225.056 133.677C224.944 133.77 224.801 133.82 224.653 133.819H219.318C219.313 134.213 219.359 134.607 219.454 134.99C219.534 135.317 219.688 135.623 219.906 135.885C220.127 136.14 220.411 136.337 220.731 136.458C221.128 136.6 221.548 136.668 221.971 136.657C222.317 136.662 222.662 136.633 223.002 136.569C223.267 136.518 223.529 136.45 223.785 136.366C224.005 136.29 224.186 136.222 224.327 136.162C224.427 136.113 224.537 136.083 224.649 136.073C224.688 136.072 224.728 136.083 224.761 136.103C224.795 136.125 224.822 136.156 224.838 136.192C224.859 136.246 224.873 136.303 224.88 136.36C224.889 136.449 224.893 136.537 224.893 136.626C224.893 136.691 224.89 136.756 224.883 136.821C224.879 136.871 224.871 136.92 224.86 136.969C224.853 137.01 224.837 137.05 224.816 137.086C224.793 137.122 224.766 137.155 224.736 137.185C224.645 137.249 224.547 137.301 224.443 137.342C224.239 137.428 224.029 137.499 223.813 137.554C223.518 137.631 223.219 137.693 222.917 137.74C222.558 137.797 222.196 137.825 221.833 137.823C221.237 137.834 220.644 137.743 220.081 137.554C219.601 137.388 219.168 137.116 218.818 136.758C218.459 136.378 218.194 135.925 218.043 135.432C217.859 134.83 217.771 134.204 217.782 133.576C217.773 132.963 217.865 132.352 218.053 131.767C218.213 131.266 218.478 130.802 218.831 130.404C219.168 130.033 219.588 129.74 220.059 129.546C220.569 129.341 221.118 129.239 221.67 129.246C222.306 129.246 222.847 129.345 223.295 129.542C223.719 129.724 224.096 129.995 224.396 130.337C224.689 130.681 224.905 131.08 225.029 131.508C225.166 131.972 225.234 132.453 225.232 132.935V133.195ZM223.738 132.77C223.755 132.018 223.582 131.429 223.217 131.002C222.853 130.575 222.311 130.361 221.592 130.361C221.257 130.353 220.925 130.422 220.623 130.56C220.354 130.687 220.116 130.868 219.925 131.09C219.733 131.319 219.586 131.58 219.491 131.859C219.387 132.155 219.329 132.463 219.318 132.774L223.738 132.77Z" fill="#2D2D2D"/>
<path d="M340.713 104.998H231.823V178.828H340.713V104.998Z" fill="white"/>
<path d="M338.536 107.114H234V176.655H338.536V107.114Z" fill="#003399"/>
<path d="M284.033 122.269L286.268 120.668L288.446 122.269L287.644 119.696L289.879 118.094H287.07L286.268 115.464L285.408 118.094H282.657L284.893 119.696L284.033 122.269Z" fill="#FFCC00"/>
<path d="M272.628 125.357L274.863 123.756L277.041 125.357L276.181 122.727L278.416 121.125H275.666L274.863 118.495L274.003 121.125H271.253L273.488 122.727L272.628 125.357Z" fill="#FFCC00"/>
<path d="M266.496 126.844L265.636 129.475H262.885L265.12 131.076L264.261 133.707L266.496 132.105L268.674 133.707L267.871 131.076L270.106 129.475H267.355L266.496 126.844Z" fill="#FFCC00"/>
<path d="M263.401 143.486L265.636 145.087L264.776 142.457L267.012 140.855H264.261L263.401 138.225L262.599 140.855H259.79L262.026 142.457L261.223 145.087L263.401 143.486Z" fill="#FFCC00"/>
<path d="M267.355 152.293L266.496 149.662L265.636 152.293H262.885L265.12 153.894L264.261 156.468L266.496 154.866L268.674 156.468L267.871 153.894L270.106 152.293H267.355Z" fill="#FFCC00"/>
<path d="M275.723 160.642L274.863 158.012L274.004 160.642H271.253L273.488 162.244L272.628 164.817L274.863 163.216L277.041 164.817L276.239 162.244L278.474 160.642H275.723Z" fill="#FFCC00"/>
<path d="M287.128 163.673L286.268 161.043L285.408 163.673H282.657L284.893 165.275L284.033 167.848L286.268 166.247L288.446 167.848L287.644 165.275L289.879 163.673H287.128Z" fill="#FFCC00"/>
<path d="M298.475 160.642L297.673 158.012L296.813 160.642H294.062L296.297 162.244L295.438 164.817L297.673 163.216L299.851 164.817L299.048 162.244L301.284 160.642H298.475Z" fill="#FFCC00"/>
<path d="M306.9 152.293L306.04 149.662L305.181 152.293H302.43L304.665 153.894L303.805 156.468L306.04 154.866L308.218 156.468L307.416 153.894L309.651 152.293H306.9Z" fill="#FFCC00"/>
<path d="M312.688 140.855H309.88L309.078 138.225L308.218 140.855H305.467L307.702 142.457L306.843 145.03L309.078 143.429L311.256 145.03L310.453 142.457L312.688 140.855Z" fill="#FFCC00"/>
<path d="M303.805 133.65L306.04 132.048L308.218 133.65L307.416 131.076L309.651 129.475H306.9L306.04 126.844L305.181 129.475H302.43L304.665 131.076L303.805 133.65Z" fill="#FFCC00"/>
<path d="M297.673 118.495L296.871 121.125H294.062L296.297 122.727L295.495 125.357L297.673 123.756L299.908 125.357L299.048 122.727L301.284 121.125H298.533L297.673 118.495Z" fill="#FFCC00"/>
</svg>
