<svg width="300" height="142" viewBox="0 0 300 142" fill="none" xmlns="http://www.w3.org/2000/svg">
<g clip-path="url(#clip0)">
<path d="M150.339 4.76011C144.237 15.3723 135.971 24.5767 126.079 31.773C116.205 39.0339 104.898 44.1015 92.9143 46.6373C85.9548 48.0975 78.8569 48.667 71.7808 49.2729C74.0618 54.1936 76.882 58.7639 81.1597 62.3559C85.0688 65.5888 89.7109 67.8101 94.6778 68.8244C99.2834 69.7589 103.925 69.4157 108.524 68.6054C113.043 67.8696 117.437 66.5007 121.576 64.5388C122.428 64.1227 123.82 63.3196 124.09 63.159C133.111 57.7345 139.517 44.7464 144.232 33.7077C148.376 24.0196 150.855 13.6993 151.563 3.18314C151.563 2.93491 151.563 2.68669 151.6 2.45306C151.213 3.23425 150.798 4.00083 150.339 4.76011Z" fill="#231F20"/>
<path d="M35.1398 49.3021C40.7659 46.1302 46.8897 43.9404 53.249 42.8263C56.9874 42.0963 60.7623 41.6071 64.5517 41.2056C62.8574 37.7282 60.5518 34.5849 57.7453 31.9263C54.4736 29.0349 50.6754 26.8038 46.5591 25.3556C39.4175 22.7638 30.0459 21.8439 23.8589 27.0129C16.8524 35.6606 11.4407 45.4903 7.87767 56.0407C3.32305 69.1821 1.15141 82.9879 0 96.8228C0.240484 96.6403 1.28258 93.7565 1.92387 92.1869C6.22099 80.4578 12.7888 69.6948 21.25 60.5161C25.324 56.1353 30.0011 52.3593 35.1398 49.3021Z" fill="#231F20"/>
<path d="M91.107 76.6581C86.2948 75.069 81.9507 72.3098 78.4633 68.6272C73.4642 63.2685 70.9282 56.3838 68.261 49.6452C61.4473 50.2658 54.6627 51.0543 48.0239 52.8065C42.1207 54.357 36.5342 56.9317 31.518 60.4139C26.5838 63.8971 22.1357 68.0244 18.2914 72.6865C13.0044 79.0552 8.59276 86.1047 5.17407 93.647C15.6023 88.3028 28.1293 87.8648 39.6507 88.3758C47.9583 88.7336 56.266 89.5075 64.5882 89.1059C71.3855 88.7772 78.1235 87.675 84.6722 85.8206C91.3288 83.9358 97.7566 81.3184 103.838 78.016C99.5463 78.4426 95.2129 77.9804 91.107 76.6581Z" fill="#231F20"/>
<path d="M60.1137 25.6111C63.1234 29.1593 65.1711 33.3937 66.9565 37.6574C67.4011 38.7087 67.831 39.7746 68.261 40.8478C77.9824 39.9498 87.7475 39.3877 97.2284 36.8908C118.078 31.2554 136.124 18.1221 147.919 0C137.324 4.17604 125.445 4.84041 114.172 4.41697C98.3288 3.83291 82.4714 0.970999 66.614 2.9057C59.294 3.74704 52.1795 5.87495 45.5972 9.19167C42.6043 10.7382 39.7386 12.5204 37.0272 14.5212C41.394 14.8625 45.6617 16.0006 49.6198 17.8796C53.6338 19.6678 57.2137 22.3054 60.1137 25.6111Z" fill="url(#paint0_linear)"/>
<path d="M6.04852 104.518H15.5659L30.709 123.967V104.518H40.7292V141.314H31.7876L16.0614 121.134V141.314H6.04852V104.518Z" fill="#231F20"/>
<path d="M54.721 141.949C53.4377 141.959 52.161 141.765 50.9389 141.372C49.8336 141.011 48.809 140.438 47.9219 139.686C47.0559 138.936 46.3666 138.004 45.9033 136.955C45.3946 135.758 45.1462 134.467 45.1745 133.166V133.064C45.1453 131.721 45.4246 130.39 45.9907 129.173C46.5085 128.078 47.2807 127.124 48.2425 126.391C49.2892 125.613 50.4737 125.041 51.7332 124.705C53.2225 124.303 54.7601 124.108 56.3024 124.128C57.5782 124.124 58.8517 124.239 60.1064 124.471C61.1279 124.643 62.1361 124.887 63.1234 125.201V124.741C63.1591 124.104 63.0526 123.466 62.8119 122.875C62.5711 122.284 62.2021 121.755 61.7315 121.324C60.8084 120.521 59.3825 120.12 57.4538 120.12C56.0775 120.106 54.7039 120.246 53.3583 120.536C52.0912 120.834 50.8468 121.222 49.6344 121.697L47.5867 114.666C49.2393 113.989 50.9457 113.452 52.6878 113.06C54.7856 112.631 56.9235 112.43 59.0643 112.461C61.2576 112.406 63.4453 112.707 65.5428 113.352C67.167 113.86 68.6496 114.743 69.8715 115.929C70.9585 116.982 71.763 118.293 72.2108 119.74C72.7194 121.435 72.9652 123.198 72.9395 124.967V141.314H63.0578V138.393C62.0214 139.574 60.7352 140.507 59.2929 141.126C57.8507 141.745 56.2888 142.033 54.721 141.971V141.949ZM58.2846 135.692C59.5925 135.746 60.8709 135.294 61.8554 134.429C62.3163 133.993 62.6769 133.461 62.9122 132.871C63.1475 132.281 63.2519 131.647 63.2181 131.012V129.698C62.6521 129.464 62.0636 129.288 61.4619 129.173C60.7614 129.031 60.0485 128.96 59.3339 128.961C58.1275 128.883 56.9318 129.229 55.9526 129.939C55.5714 130.242 55.2662 130.631 55.0612 131.073C54.8562 131.515 54.7572 132 54.772 132.487V132.589C54.7477 133.022 54.8253 133.454 54.9988 133.851C55.1722 134.248 55.4366 134.599 55.7704 134.874C56.4846 135.438 57.3761 135.728 58.2846 135.692Z" fill="#231F20"/>
<path d="M88.7167 141.898C85.6948 141.898 83.3386 141.168 81.6479 139.708C79.9572 138.247 79.1192 135.853 79.1192 132.458V120.923H75.7597V112.892H79.1192V105.693H89.1248V112.892H95.7344V120.923H89.1248V130.538C89.0844 130.93 89.1236 131.326 89.2401 131.702C89.3566 132.079 89.5479 132.428 89.8025 132.728C90.3736 133.206 91.1083 133.442 91.8502 133.385C92.5077 133.386 93.1622 133.297 93.796 133.122C94.4254 132.946 95.0396 132.719 95.6324 132.443V140.27C94.6533 140.792 93.6129 141.189 92.5353 141.453C91.2861 141.761 90.0032 141.911 88.7167 141.898Z" fill="#231F20"/>
<path d="M109.588 141.949C106.527 141.949 104.144 141.019 102.439 139.16C100.734 137.301 99.881 134.743 99.881 131.487V112.877H109.901V128.282C109.808 129.566 110.195 130.838 110.987 131.852C111.354 132.257 111.805 132.575 112.309 132.785C112.813 132.994 113.357 133.09 113.902 133.064C114.445 133.077 114.985 132.975 115.487 132.767C115.989 132.558 116.442 132.246 116.817 131.852C117.658 130.861 118.077 129.579 117.983 128.282V112.877H128.003V141.314H117.983V137.43C117.045 138.657 115.913 139.723 114.631 140.584C113.126 141.539 111.368 142.015 109.588 141.949Z" fill="#231F20"/>
<path d="M133.177 112.877H143.204V118.608C143.909 116.817 145.043 115.228 146.506 113.98C147.905 112.826 149.795 112.3 152.175 112.403V122.916H151.337C148.714 122.916 146.695 123.69 145.303 125.23C143.911 126.771 143.204 129.194 143.204 132.487V141.314H133.177V112.877Z" fill="#231F20"/>
<path d="M169.082 142C166.985 142.027 164.901 141.66 162.939 140.92C161.157 140.247 159.526 139.23 158.136 137.926C156.771 136.616 155.698 135.031 154.988 133.276C154.221 131.354 153.839 129.3 153.866 127.231V127.121C153.847 125.137 154.203 123.168 154.915 121.317C155.584 119.561 156.589 117.954 157.874 116.586C159.16 115.232 160.704 114.15 162.414 113.403C164.237 112.62 166.203 112.227 168.186 112.249C170.378 112.195 172.556 112.626 174.562 113.512C176.283 114.293 177.807 115.451 179.022 116.9C180.224 118.347 181.126 120.02 181.675 121.821C182.26 123.754 182.552 125.765 182.542 127.785V128.786C182.542 129.136 182.542 129.516 182.491 129.837H163.456C163.731 131.238 164.509 132.49 165.642 133.356C166.805 134.16 168.195 134.568 169.607 134.517C170.736 134.527 171.855 134.293 172.886 133.83C174.012 133.283 175.033 132.542 175.903 131.64L181.412 136.21C179.97 138.094 178.097 139.602 175.951 140.609C173.805 141.615 171.449 142.09 169.082 141.993V142ZM173.17 124.741C173.074 123.35 172.521 122.03 171.596 120.988C171.169 120.528 170.648 120.165 170.068 119.925C169.488 119.684 168.864 119.571 168.237 119.594C167.626 119.574 167.018 119.688 166.457 119.929C165.895 120.17 165.393 120.532 164.987 120.988C164.083 122.054 163.502 123.356 163.31 124.741H173.17Z" fill="#231F20"/>
<path d="M201.212 141.949C198.027 141.966 194.862 141.448 191.848 140.416C188.947 139.429 186.277 137.862 183.999 135.809L189.669 129.019C193.007 131.825 197.219 133.375 201.576 133.4C202.657 133.462 203.736 133.237 204.703 132.75C205.035 132.567 205.311 132.295 205.5 131.966C205.689 131.636 205.784 131.261 205.774 130.881V130.779C205.781 130.42 205.69 130.067 205.512 129.757C205.265 129.392 204.932 129.093 204.542 128.888C203.942 128.555 203.31 128.283 202.655 128.077C201.646 127.756 200.623 127.486 199.587 127.267C197.644 126.81 195.824 126.311 194.129 125.77C192.576 125.289 191.102 124.581 189.756 123.668C188.552 122.841 187.554 121.747 186.841 120.47C186.083 119.004 185.714 117.367 185.77 115.717V115.615C185.751 113.989 186.081 112.378 186.739 110.891C187.392 109.452 188.361 108.179 189.574 107.168C190.898 106.071 192.423 105.242 194.063 104.73C195.979 104.126 197.979 103.833 199.988 103.861C202.844 103.818 205.689 104.237 208.412 105.102C210.842 105.908 213.108 107.145 215.102 108.752L210.001 115.973C208.413 114.833 206.674 113.921 204.834 113.264C203.196 112.678 201.472 112.367 199.733 112.344C198.765 112.278 197.802 112.518 196.978 113.031C196.699 113.213 196.469 113.462 196.309 113.755C196.149 114.048 196.063 114.376 196.06 114.71V114.812C196.049 115.2 196.151 115.583 196.351 115.914C196.604 116.285 196.948 116.584 197.35 116.783C197.969 117.109 198.618 117.373 199.288 117.572C200.112 117.834 201.154 118.105 202.407 118.382C204.34 118.788 206.244 119.322 208.106 119.981C209.646 120.515 211.101 121.267 212.427 122.215C213.581 123.034 214.518 124.122 215.16 125.383C215.817 126.768 216.14 128.289 216.1 129.822V129.925C216.133 131.664 215.767 133.387 215.029 134.962C214.315 136.423 213.284 137.705 212.012 138.715C210.621 139.794 209.035 140.595 207.341 141.073C205.352 141.665 203.287 141.96 201.212 141.949Z" fill="#231F20"/>
<path d="M233.561 142C231.588 142.015 229.632 141.635 227.807 140.883C225.983 140.131 224.327 139.021 222.936 137.62C220.229 134.836 218.715 131.102 218.716 127.216V127.106C218.691 124.187 219.54 121.328 221.154 118.897C222.767 116.466 225.071 114.575 227.767 113.469C229.722 112.663 231.819 112.26 233.933 112.286C236.493 112.192 239.03 112.793 241.278 114.023C243.215 115.159 244.852 116.744 246.051 118.645L239.281 123.69C238.664 122.833 237.902 122.092 237.03 121.499C236.113 120.944 235.054 120.67 233.984 120.711C233.212 120.705 232.45 120.875 231.754 121.207C231.077 121.535 230.479 122.003 229.997 122.58C229.497 123.171 229.105 123.845 228.839 124.573C228.556 125.357 228.416 126.185 228.423 127.019V127.121C228.416 127.99 228.556 128.854 228.839 129.676C229.096 130.423 229.489 131.116 229.997 131.721C230.484 132.302 231.09 132.77 231.775 133.093C232.499 133.428 233.288 133.597 234.086 133.59C235.146 133.624 236.194 133.35 237.103 132.801C238.015 132.19 238.837 131.453 239.544 130.611L246.212 135.444C244.918 137.372 243.213 138.987 241.22 140.175C238.878 141.465 236.232 142.096 233.561 142Z" fill="#231F20"/>
<path d="M262.747 142C260.603 142.023 258.475 141.632 256.48 140.846C254.636 140.116 252.951 139.035 251.517 137.663C250.114 136.315 248.999 134.695 248.241 132.901C247.483 131.108 247.098 129.178 247.108 127.231V127.121C247.098 125.142 247.5 123.182 248.289 121.368C249.059 119.589 250.173 117.981 251.568 116.637C253.01 115.26 254.702 114.172 256.553 113.432C258.554 112.629 260.693 112.227 262.849 112.249C264.998 112.226 267.13 112.628 269.123 113.432C270.957 114.175 272.637 115.252 274.079 116.608C275.47 117.929 276.576 119.521 277.329 121.288C278.105 123.098 278.5 125.049 278.488 127.019V127.121C278.499 129.103 278.097 131.065 277.307 132.881C276.537 134.66 275.422 136.268 274.028 137.612C272.586 138.989 270.894 140.077 269.043 140.817C267.042 141.621 264.903 142.022 262.747 142ZM262.849 133.487C263.698 133.499 264.54 133.329 265.319 132.991C266.031 132.68 266.665 132.217 267.178 131.633C267.697 131.046 268.098 130.365 268.358 129.625C268.641 128.859 268.784 128.048 268.781 127.231V127.121C268.784 126.285 268.633 125.456 268.336 124.675C268.051 123.93 267.622 123.248 267.076 122.668C266.53 122.09 265.88 121.621 265.159 121.288C264.405 120.933 263.58 120.753 262.747 120.762C261.9 120.75 261.06 120.919 260.284 121.259C259.57 121.569 258.933 122.032 258.418 122.616C257.899 123.203 257.498 123.885 257.238 124.624C256.954 125.39 256.811 126.202 256.815 127.019V127.121C256.812 127.959 256.962 128.791 257.259 129.574C257.547 130.318 257.975 131 258.52 131.582C259.068 132.157 259.718 132.625 260.437 132.962C261.19 133.321 262.014 133.506 262.849 133.502V133.487Z" fill="#231F20"/>
<path d="M292.968 141.898C289.946 141.898 287.592 141.168 285.906 139.708C284.216 138.247 283.37 135.853 283.37 132.458V120.923H280.011V112.892H283.37V105.693H293.39V112.892H300.007V120.923H293.39V130.538C293.351 130.93 293.391 131.327 293.509 131.703C293.627 132.08 293.819 132.428 294.075 132.728C294.646 133.207 295.381 133.443 296.123 133.385C296.778 133.386 297.43 133.298 298.062 133.122C298.691 132.947 299.306 132.72 299.898 132.443V140.27C298.919 140.793 297.879 141.19 296.801 141.452C295.547 141.763 294.259 141.913 292.968 141.898Z" fill="#231F20"/>
</g>
<defs>
<linearGradient id="paint0_linear" x1="75.3079" y1="44.1405" x2="105.24" y2="-19.9329" gradientUnits="userSpaceOnUse">
<stop stop-color="#231F20"/>
<stop offset="1" stop-color="#231F20" stop-opacity="0"/>
</linearGradient>
<clipPath id="clip0">
<rect width="300" height="142" fill="white"/>
</clipPath>
</defs>
</svg>
