<svg width="250" height="118" viewBox="0 0 250 118" fill="none" xmlns="http://www.w3.org/2000/svg">
<g clip-path="url(#clip0)">
<path d="M5.04047 86.8528H12.9716L25.5909 103.015V86.8528H33.941V117.43H26.4897L13.3845 100.661V117.43H5.04047V86.8528Z" fill="#5A90C6"/>
<path d="M45.6008 117.958C44.5314 117.966 43.4674 117.804 42.449 117.478C41.528 117.178 40.6741 116.702 39.9349 116.077C39.2115 115.456 38.6367 114.68 38.2527 113.808C37.8288 112.813 37.6218 111.74 37.6454 110.659V110.574C37.6211 109.458 37.8538 108.352 38.3256 107.341C38.757 106.431 39.4005 105.639 40.2021 105.029C41.0743 104.383 42.0614 103.907 43.111 103.628C44.3521 103.294 45.6334 103.132 46.9186 103.148C47.9818 103.146 49.043 103.241 50.0886 103.434C50.9399 103.576 51.7801 103.779 52.6028 104.04V103.658C52.6325 103.128 52.5438 102.599 52.3432 102.108C52.1426 101.617 51.835 101.176 51.4429 100.819C50.6656 100.151 49.4814 99.8177 47.8781 99.8177C46.7312 99.8067 45.5866 99.9227 44.4652 100.163C43.4093 100.411 42.3723 100.734 41.362 101.128L39.6555 95.2858C41.0327 94.7231 42.4547 94.2766 43.9065 93.9511C45.6547 93.5946 47.4362 93.4278 49.2202 93.4536C51.0479 93.4087 52.8709 93.6587 54.619 94.1937C55.9725 94.616 57.208 95.3495 58.2262 96.3353C59.132 97.2106 59.8025 98.2997 60.1756 99.5022C60.5995 100.911 60.8043 102.376 60.7829 103.846V117.43H52.5481V115.003C51.6845 115.984 50.6126 116.759 49.4107 117.274C48.2089 117.788 46.9073 118.028 45.6008 117.976V117.958ZM48.5704 112.758C49.6604 112.803 50.7258 112.427 51.5461 111.709C51.9302 111.346 52.2307 110.904 52.4268 110.414C52.6229 109.924 52.7099 109.397 52.6817 108.869V107.777C52.21 107.582 51.7196 107.436 51.2182 107.341C50.6345 107.223 50.0404 107.164 49.4449 107.165C48.4396 107.1 47.4431 107.387 46.6271 107.978C46.3095 108.23 46.0551 108.552 45.8843 108.92C45.7135 109.287 45.631 109.69 45.6433 110.095V110.18C45.623 110.539 45.6878 110.899 45.8323 111.229C45.9768 111.558 46.1971 111.85 46.4753 112.079C47.0705 112.547 47.8134 112.788 48.5704 112.758V112.758Z" fill="#5A90C6"/>
<path d="M73.9306 117.915C71.4124 117.915 69.4488 117.308 68.04 116.095C66.6311 114.882 65.9327 112.892 65.9327 110.071V100.485H63.1331V93.8115H65.9327V87.8296H74.2707V93.8115H79.7787V100.485H74.2707V108.475C74.237 108.801 74.2697 109.13 74.3668 109.443C74.4638 109.756 74.6232 110.046 74.8354 110.295C75.3114 110.692 75.9236 110.888 76.5419 110.841C77.0898 110.842 77.6352 110.768 78.1634 110.623C78.6879 110.476 79.1997 110.288 79.6937 110.059V116.562C78.8778 116.996 78.0107 117.326 77.1128 117.545C76.0718 117.802 75.0027 117.926 73.9306 117.915Z" fill="#5A90C6"/>
<path d="M91.3231 117.958C88.7725 117.958 86.7867 117.185 85.3657 115.64C83.9446 114.095 83.2341 111.97 83.2341 109.264V93.7994H91.5843V106.6C91.5067 107.667 91.8292 108.725 92.4891 109.567C92.7947 109.903 93.1709 110.168 93.5909 110.342C94.0108 110.516 94.4641 110.596 94.9182 110.574C95.371 110.585 95.821 110.501 96.2394 110.327C96.6577 110.154 97.0351 109.895 97.3474 109.567C98.0483 108.744 98.3972 107.678 98.319 106.6V93.7994H106.669V117.43H98.319V114.202C97.5374 115.222 96.5938 116.108 95.5255 116.823C94.2717 117.617 92.8065 118.012 91.3231 117.958V117.958Z" fill="#5A90C6"/>
<path d="M110.981 93.7994H119.337V98.5619C119.924 97.0736 120.869 95.7526 122.088 94.7155C123.254 93.7569 124.829 93.3201 126.813 93.4051V102.141H126.114C123.928 102.141 122.246 102.784 121.086 104.064C119.926 105.345 119.337 107.359 119.337 110.095V117.43H110.981V93.7994Z" fill="#5A90C6"/>
<path d="M140.902 118C139.154 118.022 137.418 117.718 135.782 117.102C134.298 116.543 132.938 115.698 131.78 114.615C130.643 113.526 129.749 112.209 129.157 110.75C128.517 109.154 128.199 107.446 128.222 105.727V105.636C128.206 103.987 128.503 102.351 129.096 100.813C129.653 99.3539 130.491 98.0183 131.562 96.8813C132.634 95.7563 133.92 94.857 135.345 94.2362C136.864 93.5857 138.502 93.2593 140.155 93.2776C141.982 93.232 143.796 93.5904 145.468 94.3272C146.903 94.9758 148.173 95.9378 149.185 97.1422C150.187 98.3449 150.938 99.735 151.396 101.231C151.883 102.838 152.127 104.509 152.118 106.188V107.019C152.118 107.31 152.118 107.626 152.076 107.893H136.213C136.442 109.057 137.091 110.097 138.035 110.817C139.004 111.485 140.162 111.824 141.339 111.781C142.28 111.79 143.212 111.595 144.072 111.211C145.01 110.756 145.861 110.14 146.586 109.391L151.177 113.189C149.975 114.754 148.414 116.008 146.626 116.844C144.838 117.68 142.875 118.075 140.902 117.994V118ZM144.309 103.658C144.229 102.502 143.767 101.405 142.997 100.54C142.641 100.157 142.206 99.8556 141.723 99.6557C141.24 99.4558 140.72 99.362 140.197 99.3809C139.688 99.3639 139.182 99.4589 138.714 99.6591C138.246 99.8594 137.828 100.16 137.489 100.54C136.736 101.425 136.251 102.507 136.092 103.658H144.309Z" fill="#5A90C6"/>
<path d="M167.677 117.958C165.023 117.972 162.385 117.541 159.873 116.683C157.456 115.864 155.231 114.561 153.333 112.855L158.057 107.213C160.839 109.545 164.349 110.832 167.98 110.853C168.881 110.905 169.78 110.718 170.586 110.313C170.863 110.161 171.092 109.936 171.25 109.662C171.407 109.388 171.486 109.076 171.478 108.76V108.675C171.484 108.378 171.409 108.084 171.26 107.826C171.054 107.523 170.777 107.275 170.452 107.104C169.952 106.827 169.425 106.602 168.879 106.431C168.039 106.164 167.185 105.939 166.323 105.757C164.703 105.377 163.187 104.962 161.774 104.513C160.48 104.113 159.252 103.525 158.13 102.766C157.126 102.079 156.295 101.17 155.701 100.109C155.069 98.8908 154.762 97.5306 154.808 96.1594V96.0745C154.792 94.7233 155.068 93.3845 155.616 92.1492C156.16 90.9531 156.968 89.8954 157.978 89.0551C159.082 88.1432 160.352 87.4549 161.719 87.0288C163.316 86.5271 164.983 86.2834 166.657 86.3068C169.037 86.2714 171.407 86.6196 173.677 87.3382C175.702 88.0082 177.59 89.0356 179.252 90.3716L175.001 96.3717C173.678 95.4243 172.228 94.6667 170.695 94.1209C169.33 93.6335 167.894 93.3752 166.444 93.3565C165.638 93.3013 164.835 93.5008 164.148 93.9268C163.916 94.0785 163.724 94.2853 163.591 94.5287C163.457 94.7721 163.386 95.0446 163.383 95.3222V95.4071C163.375 95.7294 163.459 96.0474 163.626 96.3232C163.837 96.6312 164.123 96.8799 164.458 97.0452C164.974 97.3156 165.515 97.535 166.074 97.7004C166.76 97.9188 167.628 98.1432 168.673 98.3738C170.284 98.7108 171.87 99.1547 173.422 99.7024C174.705 100.146 175.917 100.771 177.023 101.559C177.984 102.24 178.765 103.143 179.3 104.192C179.848 105.343 180.116 106.607 180.084 107.881V107.965C180.111 109.411 179.806 110.843 179.191 112.152C178.596 113.365 177.737 114.431 176.677 115.27C175.517 116.167 174.196 116.833 172.784 117.23C171.127 117.721 169.406 117.967 167.677 117.958V117.958Z" fill="#5A90C6"/>
<path d="M194.634 118C192.99 118.012 191.36 117.697 189.84 117.072C188.319 116.447 186.939 115.525 185.78 114.36C183.524 112.047 182.262 108.944 182.264 105.715V105.624C182.243 103.198 182.95 100.821 184.295 98.8014C185.639 96.7813 187.559 95.2101 189.806 94.2908C191.435 93.6211 193.182 93.2868 194.944 93.308C197.077 93.2301 199.192 93.729 201.065 94.7519C202.679 95.6956 204.044 97.0126 205.043 98.5922L199.401 102.784C198.887 102.073 198.252 101.457 197.525 100.964C196.761 100.503 195.878 100.275 194.986 100.309C194.344 100.305 193.708 100.446 193.128 100.722C192.565 100.994 192.066 101.382 191.664 101.862C191.247 102.353 190.92 102.914 190.699 103.518C190.464 104.17 190.346 104.858 190.353 105.551V105.636C190.347 106.358 190.464 107.076 190.699 107.759C190.914 108.38 191.241 108.956 191.664 109.458C192.07 109.941 192.575 110.33 193.146 110.598C193.749 110.877 194.407 111.018 195.071 111.011C195.955 111.039 196.828 110.812 197.585 110.356C198.346 109.848 199.031 109.235 199.62 108.536L205.176 112.552C204.098 114.154 202.677 115.497 201.017 116.483C199.065 117.556 196.86 118.08 194.634 118V118Z" fill="#5A90C6"/>
<path d="M218.956 118C217.169 118.019 215.396 117.694 213.733 117.041C212.197 116.434 210.792 115.536 209.597 114.396C208.428 113.276 207.499 111.93 206.867 110.439C206.236 108.949 205.915 107.345 205.923 105.727V105.636C205.915 103.991 206.25 102.363 206.907 100.855C207.549 99.377 208.478 98.0408 209.64 96.9238C210.842 95.7793 212.252 94.8753 213.794 94.2604C215.462 93.5929 217.244 93.259 219.041 93.2776C220.831 93.2579 222.608 93.5919 224.269 94.2604C225.797 94.8782 227.197 95.7729 228.399 96.8995C229.558 97.9971 230.48 99.3207 231.107 100.788C231.754 102.292 232.083 103.914 232.073 105.551V105.636C232.082 107.282 231.747 108.913 231.089 110.422C230.447 111.901 229.519 113.237 228.356 114.354C227.155 115.498 225.745 116.402 224.203 117.017C222.535 117.685 220.752 118.019 218.956 118V118ZM219.041 110.926C219.748 110.936 220.45 110.795 221.099 110.513C221.692 110.256 222.221 109.87 222.648 109.385C223.081 108.898 223.415 108.331 223.632 107.717C223.868 107.08 223.987 106.406 223.984 105.727V105.636C223.987 104.941 223.861 104.252 223.614 103.603C223.375 102.984 223.019 102.417 222.563 101.935C222.108 101.455 221.566 101.066 220.966 100.788C220.337 100.494 219.65 100.344 218.956 100.352C218.25 100.341 217.55 100.482 216.903 100.764C216.308 101.022 215.778 101.407 215.348 101.893C214.916 102.38 214.581 102.946 214.365 103.561C214.128 104.198 214.009 104.872 214.012 105.551V105.636C214.01 106.332 214.135 107.023 214.383 107.674C214.622 108.293 214.979 108.859 215.433 109.343C215.89 109.821 216.431 110.21 217.031 110.489C217.658 110.788 218.345 110.942 219.041 110.938V110.926Z" fill="#5A90C6"/>
<path d="M244.14 117.915C241.621 117.915 239.66 117.308 238.255 116.095C236.846 114.882 236.142 112.892 236.142 110.071V100.485H233.342V93.8115H236.142V87.8296H244.492V93.8115H250.006V100.485H244.492V108.475C244.459 108.801 244.493 109.131 244.591 109.443C244.689 109.756 244.85 110.046 245.063 110.295C245.538 110.693 246.151 110.889 246.769 110.841C247.315 110.842 247.859 110.769 248.385 110.623C248.91 110.477 249.421 110.289 249.915 110.059V116.562C249.1 116.997 248.232 117.327 247.334 117.545C246.289 117.803 245.216 117.927 244.14 117.915V117.915Z" fill="#5A90C6"/>
<path d="M125.282 3.95558C120.198 12.7742 113.309 20.4229 105.066 26.4029C96.8374 32.4366 87.4154 36.6477 77.4285 38.755C71.629 39.9683 65.714 40.4415 59.8173 40.9451C61.7181 45.0341 64.0683 48.832 67.633 51.8169C70.8907 54.5034 74.7591 56.3492 78.8981 57.1921C82.7362 57.9686 86.6045 57.6835 90.4365 57.0101C94.2026 56.3987 97.864 55.2612 101.313 53.6308C102.023 53.285 103.183 52.6177 103.408 52.4842C110.926 47.9765 116.264 37.1836 120.193 28.0106C123.647 19.9599 125.712 11.3839 126.303 2.64514C126.303 2.43886 126.303 2.23259 126.333 2.03845C126.011 2.6876 125.665 3.32462 125.282 3.95558Z" fill="#90C53D"/>
<path d="M29.2832 40.9694C33.9716 38.3335 39.0747 36.5138 44.3741 35.5881C47.4895 34.9814 50.6352 34.5749 53.7931 34.2412C52.3812 31.3516 50.4598 28.7395 48.1211 26.5303C45.3947 24.1276 42.2295 22.2736 38.7993 21.0701C32.8479 18.9164 25.0383 18.152 19.8824 22.4473C14.0437 29.6334 9.53393 37.8018 6.56472 46.569C2.76921 57.4894 0.959506 68.9618 0 80.4584C0.200403 80.3067 1.06882 77.9103 1.60323 76.606C5.18415 66.8593 10.6573 57.9154 17.7084 50.288C21.1034 46.6477 25.0009 43.5098 29.2832 40.9694V40.9694Z" fill="#5A90C6"/>
<path d="M75.9225 63.7018C71.9123 62.3813 68.2923 60.0884 65.3861 57.0283C61.2202 52.5752 59.1068 46.8542 56.8842 41.2545C51.2061 41.7702 45.5523 42.4254 40.0199 43.8814C35.1005 45.1699 30.4452 47.3094 26.265 50.2031C22.1532 53.0976 18.4464 56.5273 15.2428 60.4014C10.837 65.6938 7.16061 71.5518 4.31171 77.8193C13.0019 73.3784 23.4411 73.0144 33.0422 73.4391C39.9653 73.7363 46.8883 74.3794 53.8235 74.0458C59.4879 73.7726 65.1029 72.8567 70.5602 71.3157C76.1073 69.7495 81.4638 67.5744 86.5317 64.8302C82.9553 65.1847 79.344 64.8006 75.9225 63.7018V63.7018Z" fill="#90C53D"/>
<path d="M50.0947 21.2825C52.6028 24.231 54.3093 27.7497 55.7971 31.2928C56.1675 32.1664 56.5258 33.0521 56.8841 33.944C64.9853 33.1977 73.1229 32.7306 81.0236 30.6557C98.3981 25.9728 113.437 15.0592 123.266 0C114.436 3.47023 104.538 4.02232 95.1429 3.67044C81.9406 3.18509 68.7261 0.806887 55.5117 2.4146C49.4117 3.11374 43.4829 4.882 37.9977 7.63815C35.5036 8.92332 33.1155 10.4042 30.856 12.0669C34.495 12.3505 38.0514 13.2963 41.3499 14.8577C44.6948 16.3436 47.6781 18.5354 50.0947 21.2825V21.2825Z" fill="url(#paint0_linear)"/>
</g>
<defs>
<linearGradient id="paint0_linear" x1="62.7566" y1="36.6801" x2="87.5845" y2="-16.6176" gradientUnits="userSpaceOnUse">
<stop stop-color="#5A90C6"/>
<stop offset="1" stop-color="#5A90C6" stop-opacity="0"/>
</linearGradient>
<clipPath id="clip0">
<rect width="250" height="118" fill="white"/>
</clipPath>
</defs>
</svg>
