<svg width="185" height="114" viewBox="0 0 185 114" fill="none" xmlns="http://www.w3.org/2000/svg">
<mask id="mask0" mask-type="alpha" maskUnits="userSpaceOnUse" x="0" y="0" width="185" height="114">
<path fill-rule="evenodd" clip-rule="evenodd" d="M0 0.809273H184.169V114H0V0.809273Z" fill="white"/>
</mask>
<g mask="url(#mask0)">
</g>
<mask id="mask1" mask-type="alpha" maskUnits="userSpaceOnUse" x="0" y="0" width="185" height="114">
<path fill-rule="evenodd" clip-rule="evenodd" d="M0 0.809273H184.169V114H0V0.809273Z" fill="white"/>
</mask>
<g mask="url(#mask1)">
<path fill-rule="evenodd" clip-rule="evenodd" d="M148.033 98.1667C148.014 98.1817 147.995 98.1955 147.976 98.2105L147.475 97.6117C137.15 106.084 124.035 110.667 110.502 110.667C95.0144 110.667 80.5038 104.834 69.6215 94.1391C58.7393 83.5847 52.7387 69.4186 52.7387 54.4182C52.7387 42.8917 56.2273 31.642 63.0635 22.1976C69.7612 12.8921 78.9697 5.94817 89.852 1.92059L89.4342 0.809402C78.4109 4.97604 68.9243 12.0591 62.2266 21.5035C55.2507 31.2249 51.484 42.6136 51.484 54.4182C51.484 69.6955 57.623 84.1396 68.7846 94.9722C69.8342 95.9919 70.9266 96.9527 72.0379 97.8848L70.5981 99.556C81.6201 108.861 95.8513 114 110.502 114C124.872 114 138.684 109 149.708 100.112L148.033 98.1667Z" fill="#004B86"/>
<path fill-rule="evenodd" clip-rule="evenodd" d="M63.6219 19.6978C63.3437 18.7257 63.2041 17.8926 63.2041 16.9205C63.2041 12.7538 65.9942 9.00311 71.0168 9.00311C72.1331 9.00311 73.1097 9.14217 73.9466 9.42028C74.7835 8.72625 75.7601 8.03098 76.7367 7.47601C75.0629 6.50388 73.1097 5.94891 71.0168 5.94891C64.8779 5.94891 59.7155 10.8096 59.7155 16.9205C59.7155 19.0038 60.414 21.0871 61.3893 22.7533C61.6687 22.3374 61.9481 21.9202 62.2262 21.6421C62.6453 20.9468 63.2041 20.254 63.6219 19.6978Z" fill="#141414"/>
<path fill-rule="evenodd" clip-rule="evenodd" d="M78.6903 8.86494C77.7137 9.4199 76.8768 9.97612 76.0399 10.6701C77.8534 12.0594 78.83 14.4196 78.83 16.9201C78.83 21.0867 75.7605 24.6972 71.0172 24.6972C68.3655 24.6972 66.2727 23.586 64.8782 21.7808C64.5988 22.1979 64.3195 22.476 64.0401 22.8919C63.6222 23.4482 63.2044 24.0031 62.9238 24.5581C65.0179 26.5036 67.808 27.7539 71.0172 27.7539C77.2946 27.7539 82.3186 23.031 82.3186 16.9201C82.3186 13.7256 80.9229 10.8092 78.6903 8.86494Z" fill="#141414"/>
<path fill-rule="evenodd" clip-rule="evenodd" d="M58.7389 45.2522C58.7389 48.5858 56.7857 51.5022 53.8559 52.6134V54.4186V55.9469C58.5992 54.6967 62.2262 50.5301 62.2262 45.2522C62.2262 41.5028 60.1346 38.1692 57.0651 36.0859C56.646 37.1971 56.3666 38.1692 55.9488 39.1413C57.7623 40.6697 58.7389 42.8921 58.7389 45.2522Z" fill="#141414"/>
<path fill-rule="evenodd" clip-rule="evenodd" d="M51.6229 53.1687H50.9257C46.1824 53.1687 42.972 49.5583 42.972 45.2526C42.972 41.225 45.7633 37.4756 50.9257 37.4756C52.042 37.4756 53.1583 37.6134 53.994 38.0305C54.2746 37.0571 54.5527 36.0863 54.9718 35.1141C53.7158 34.697 52.3201 34.4189 50.9257 34.4189C44.647 34.4189 39.6244 39.2808 39.6244 45.2526C39.6244 51.5026 44.647 56.2242 50.9257 56.2242H51.6229C51.6229 55.6692 51.4832 54.9739 51.4832 54.419C51.4832 54.0018 51.6229 53.5859 51.6229 53.1687Z" fill="#141414"/>
<path fill-rule="evenodd" clip-rule="evenodd" d="M59.0178 66.085C64.0405 66.085 66.8306 69.8345 66.8306 73.8621C66.8306 77.4725 64.5992 80.667 61.1107 81.5014C61.6682 82.4735 62.2269 83.3066 62.7845 84.2787C67.1099 82.7516 70.3191 78.8618 70.3191 73.8621C70.3191 67.8903 65.1567 63.0296 59.0178 63.0296C57.4836 63.0296 55.9483 63.3077 54.6935 63.8627C54.832 64.8348 54.9717 65.946 55.2511 66.9181C56.3674 66.3632 57.6221 66.085 59.0178 66.085Z" fill="#141414"/>
<path fill-rule="evenodd" clip-rule="evenodd" d="M51.2041 73.862C51.2041 71.7787 51.9026 69.8344 53.297 68.3073C53.0176 67.1961 52.7395 66.0849 52.5998 64.9737C49.67 66.918 47.7168 70.2516 47.7168 73.862C47.7168 80.1132 52.7395 84.8335 59.0181 84.8335C59.436 84.8335 59.9947 84.8335 60.4138 84.6957C59.8551 83.7236 59.1578 82.7515 58.5991 81.7793C54.1352 81.5012 51.2041 78.1677 51.2041 73.862Z" fill="#141414"/>
<path fill-rule="evenodd" clip-rule="evenodd" d="M113.85 63.4463V76.0852C113.85 79.0016 112.873 81.779 109.107 81.779C105.339 81.779 104.362 79.0016 104.362 76.0852V63.4463H100.875V76.7792C100.875 81.3618 103.805 84.8344 109.107 84.8344C114.409 84.8344 117.337 81.3618 117.337 76.7792V63.4463H113.85Z" fill="#141414"/>
<path fill-rule="evenodd" clip-rule="evenodd" d="M116.64 24.42H126.128V27.3364H113.152V6.36546H116.64V24.42Z" fill="#141414"/>
<path fill-rule="evenodd" clip-rule="evenodd" d="M0 34.8363H12.278V37.8905H3.48731V42.8914H12.1383V45.9469H3.48731V52.7518H12.278V55.8073H0V34.8363Z" fill="#141414"/>
<path fill-rule="evenodd" clip-rule="evenodd" d="M69.3427 33.7251L83.8532 48.5852V34.8363H87.3405V56.6403L72.83 42.0584V55.8073H69.3427V33.7251Z" fill="#141414"/>
<path fill-rule="evenodd" clip-rule="evenodd" d="M155.847 34.8364H159.335V55.8074H155.847V34.8364Z" fill="#141414"/>
<path fill-rule="evenodd" clip-rule="evenodd" d="M33.9036 66.5016V71.5013H41.437V74.419H33.9036V84.4171H30.4163V63.4461H41.7176V66.5016H33.9036Z" fill="#141414"/>
<path fill-rule="evenodd" clip-rule="evenodd" d="M47.8561 19.4202H47.9958L51.3434 6.36533H54.6936L48.8327 28.1706L41.4377 12.4762L34.044 28.1706L28.0447 6.36533H31.5321L34.8809 19.4202L41.4377 5.94817L47.8561 19.4202Z" fill="#141414"/>
<path fill-rule="evenodd" clip-rule="evenodd" d="M128.5 42.7523H128.36L125.011 55.8071H121.664L127.523 34.0031L134.918 49.8353L142.313 34.0031L148.312 55.8071H144.824L141.475 42.7523H141.335L134.918 56.3633L128.5 42.7523Z" fill="#141414"/>
<path fill-rule="evenodd" clip-rule="evenodd" d="M130.314 71.3624L126.965 84.4173H123.477L129.337 62.6119L136.872 78.3064L144.267 62.6119L150.125 84.4173H146.638L143.289 71.3624L136.872 84.8344L130.314 71.3624Z" fill="#141414"/>
<path fill-rule="evenodd" clip-rule="evenodd" d="M83.4342 63.4463C85.3874 63.4463 87.62 63.4463 89.2938 64.4184C91.1086 65.3905 92.2236 67.4738 92.2236 69.4181C92.2236 72.4736 90.132 74.974 87.0612 75.2509L93.759 84.4172H89.8526L83.5739 75.529H81.2017V84.4172H77.7144V63.4463H83.4342ZM81.2017 72.7517H82.737C85.5271 72.7517 88.876 72.8895 88.876 69.5572C88.876 66.2236 85.3874 66.3627 82.5973 66.3627H81.2017V72.7517Z" fill="#141414"/>
<path fill-rule="evenodd" clip-rule="evenodd" d="M95.2934 6.36483C97.2466 6.36483 99.4792 6.36483 101.153 7.33696C102.968 8.30909 103.943 10.3924 103.943 12.3367C103.943 15.3934 101.991 17.8926 98.7819 18.1695L105.618 27.3358H101.712L95.2934 18.4476H93.0608V27.3358H89.5735V6.36483H95.2934ZM93.0608 15.6702H94.5962C97.3863 15.6702 100.595 15.8093 100.595 12.4757C100.595 9.14217 97.1069 9.28248 94.4565 9.28248H93.0608V15.6702Z" fill="#141414"/>
<path fill-rule="evenodd" clip-rule="evenodd" d="M135.755 24.42H137.708C142.313 24.42 146.637 22.7526 146.637 16.7808C146.637 10.6699 142.313 9.28185 137.708 9.28185H135.755V24.42ZM132.266 6.36546H137.986C144.684 6.36546 150.126 9.55871 150.126 16.7808C150.126 24.0029 144.824 27.3364 137.986 27.3364H132.266V6.36546Z" fill="#141414"/>
<path fill-rule="evenodd" clip-rule="evenodd" d="M182.355 52.1968C181.239 52.8909 179.983 53.169 178.449 53.169C173.844 53.169 170.636 49.6964 170.636 45.3907C170.636 41.2253 173.426 37.4746 178.449 37.4746C179.983 37.4746 181.239 37.7527 182.355 38.3076L184.029 35.8084C182.495 34.9753 180.542 34.4191 178.449 34.4191C172.31 34.4191 167.148 39.281 167.148 45.3907C167.148 51.5028 172.31 56.2244 178.449 56.2244C180.542 56.2244 182.495 55.8073 184.169 54.8351L182.355 52.1968Z" fill="#141414"/>
<path fill-rule="evenodd" clip-rule="evenodd" d="M34.0435 52.1968C32.9272 52.8909 31.6712 53.169 30.2768 53.169C25.5323 53.169 22.3231 49.6964 22.3231 45.3907C22.3231 41.2253 25.1132 37.4746 30.2768 37.4746C31.6712 37.4746 32.9272 37.7527 34.0435 38.3076L35.857 35.8084C34.1832 34.9753 32.2288 34.4191 30.2768 34.4191C23.9982 34.4191 18.9755 39.281 18.9755 45.3907C18.9755 51.5028 23.9982 56.2244 30.2768 56.2244C32.2288 56.2244 34.1832 55.8073 35.857 54.8351L34.0435 52.1968Z" fill="#141414"/>
<path fill-rule="evenodd" clip-rule="evenodd" d="M113.711 45.391C113.711 41.2244 110.92 37.4749 105.898 37.4749C100.735 37.4749 97.944 41.2244 97.944 45.391C97.944 49.6967 101.153 53.1681 105.898 53.1681C110.501 53.1681 113.711 49.6967 113.711 45.391ZM117.199 45.391C117.199 51.5019 112.035 56.2248 105.898 56.2248C99.6191 56.2248 94.5964 51.5019 94.5964 45.391C94.5964 39.2801 99.6191 34.4195 105.898 34.4195C112.035 34.4195 117.199 39.2801 117.199 45.391Z" fill="#141414"/>
</g>
</svg>
